<?xml version="1.0" standalone="no"?>
<!DOCTYPE svg PUBLIC "-//W3C//DTD SVG 1.1//EN" "http://www.w3.org/Graphics/SVG/1.1/DTD/svg11.dtd" >
<svg xmlns="http://www.w3.org/2000/svg" xmlns:xlink="http://www.w3.org/1999/xlink" version="1.1">
<metadata>
Created by FontForge 20161003 at Thu Jun 20 07:00:50 2019
 By www-data
Copyright (c) 2012 by Mariya Pigoulevskaya. All rights reserved.
</metadata>
<defs>
<font id="NeusaMedium" horiz-adv-x="394" >
  <font-face 
    font-family="NeusaMedium"
    font-weight="500"
    font-stretch="normal"
    units-per-em="1000"
    panose-1="0 0 6 0 0 0 0 0 0 0"
    ascent="750"
    descent="-250"
    x-height="500"
    cap-height="700"
    bbox="-46 -212 867 959"
    underline-thickness="50"
    underline-position="-150"
    unicode-range="U+0020-FB02"
  />
<missing-glyph horiz-adv-x="250" 
 />
    <glyph glyph-name="fi" unicode="fi" horiz-adv-x="478" 
d="M251 709h25v-51h-12q-37 0 -55.5 -9t-28.5 -39t-10 -88v-22h106v-52h-106v-448h-56v448h-77v51h76v34q0 54 9.5 89.5t28.5 53.5t42 25t58 8zM364 646h65v-61h-65v61zM368 500h57v-500h-57v500z" />
    <glyph glyph-name="fl" unicode="fl" horiz-adv-x="465" 
d="M251 709h25v-51h-14q-27 0 -42.5 -5t-28 -19.5t-17 -41t-4.5 -71.5v-21h106v-52h-106v-448h-56v448h-77v51h76v34q0 54 9.5 89.5t28.5 53.5t42 25t58 8zM364 700h56v-700h-56v700z" />
    <glyph glyph-name=".notdef" horiz-adv-x="250" 
 />
    <glyph glyph-name=".null" horiz-adv-x="0" 
 />
    <glyph glyph-name="nonmarkingreturn" horiz-adv-x="333" 
 />
    <glyph glyph-name="space" unicode=" " horiz-adv-x="300" 
 />
    <glyph glyph-name="exclam" unicode="!" horiz-adv-x="165" 
d="M53 701h58v-241l-7 -297h-44l-7 297v241zM50 0v65h65v-65h-65z" />
    <glyph glyph-name="quotedbl" unicode="&#x22;" horiz-adv-x="251" 
d="M42 700h59l-9 -191h-41zM150 700h60l-9 -191h-42z" />
    <glyph glyph-name="numbersign" unicode="#" horiz-adv-x="667" 
d="M611 406h-132l-28 -133h131l-17 -63h-132l-49 -210h-68l49 210h-131l-49 -210h-67l48 210h-127l18 63h127l29 133h-127l18 63h127l53 231h68l-53 -231h130l54 231h68l-54 -231h132zM383 273l28 133h-130l-29 -133h131z" />
    <glyph glyph-name="dollar" unicode="$" horiz-adv-x="500" 
d="M446 490h-63q0 77 -37.5 116.5t-90.5 39.5t-89 -30.5t-36 -89.5q0 -17 3.5 -31t10.5 -25t13.5 -19.5t18.5 -16t19 -12t21.5 -9.5t20 -7t19.5 -5.5t16 -4.5q63 -17 103.5 -45t59.5 -65.5t19 -88.5q0 -93 -45.5 -141.5t-120.5 -58.5v-47h-67v47q-33 3 -62.5 16.5t-55.5 38
t-41.5 65.5t-15.5 93h63q0 -33 8.5 -60t22.5 -44.5t32.5 -29t37.5 -16.5t39 -5q65 0 102.5 34.5t37.5 102.5q0 60 -36.5 91.5t-107.5 51.5q-18 5 -28 8t-28.5 10t-30.5 14t-28 18t-26 24t-20 29.5t-14.5 38t-4.5 45.5q0 84 44.5 128t111.5 53v47h67v-47q67 -9 112.5 -61.5
t45.5 -151.5z" />
    <glyph glyph-name="percent" unicode="%" horiz-adv-x="667" 
d="M50 472v131q0 29 11 50.5t28.5 32.5t34.5 16t33 5q13 0 26.5 -3t28 -11t26 -19.5t18.5 -29.5t7 -41v-131q0 -28 -10.5 -49t-27.5 -32.5t-34.5 -17t-33.5 -5.5t-33 5t-34.5 16t-28.5 32.5t-11 50.5zM501 700h52l-388 -700h-51zM218 471v133q0 30 -19 45t-42 15
q-10 0 -20 -3t-20 -9.5t-16 -18.5t-6 -29v-133q0 -31 20 -45.5t42 -14.5q23 1 42 15.5t19 44.5zM404 97v131q0 23 7.5 42t19 30.5t26.5 19t28 10t25 2.5q17 0 34.5 -5.5t34 -16.5t27.5 -32.5t11 -49.5v-131q0 -19 -5 -35t-14 -27t-19.5 -19.5t-22.5 -13t-23.5 -7t-22.5 -2.5
q-15 0 -32 5t-34.5 16t-28.5 32.5t-11 50.5zM572 96v133q0 30 -19.5 45t-42.5 15q-22 0 -42 -14.5t-20 -45.5v-133q0 -31 20 -45t42 -15q23 0 42.5 15t19.5 45z" />
    <glyph glyph-name="ampersand" unicode="&#x26;" horiz-adv-x="550" 
d="M513 390v-62h-40v-135q0 -47 -11 -83t-29.5 -58t-45.5 -35.5t-55 -18.5t-63 -6h-17q-59 0 -106 20t-77.5 65t-31.5 109v14q0 62 29.5 103.5t79.5 55.5q-29 10 -51.5 29.5t-36 50.5t-13.5 71v14q0 50 17 87t46 58t62.5 30.5t71.5 9.5h89v-63h-89q-17 0 -32.5 -3
t-30.5 -8.5t-27 -15.5t-21.5 -23.5t-14.5 -32.5t-5 -42v-7q0 -63 40 -93.5t98 -30.5h159v158h65v-158h40zM408 195v133h-159q-67 0 -106 -33.5t-39 -98.5v-7q0 -63 43 -98.5t106 -35.5h11q33 0 57 6t44.5 20.5t31.5 43t11 70.5z" />
    <glyph glyph-name="quotesingle" unicode="'" horiz-adv-x="160" 
d="M50 700h60l-9 -191h-42z" />
    <glyph glyph-name="parenleft" unicode="(" horiz-adv-x="265" 
d="M157 750h58v-63h-47q-21 0 -36 -16t-15 -41v-651q0 -24 15 -40t36 -16h47v-63h-58q-46 0 -76.5 30.5t-30.5 80.5v668q0 51 30.5 81t76.5 30z" />
    <glyph glyph-name="parenright" unicode=")" horiz-adv-x="265" 
d="M50 750h57q47 0 77.5 -30t30.5 -81v-668q0 -50 -30.5 -80.5t-77.5 -30.5h-57v63h47q21 0 36 16t15 40v651q0 25 -15 41t-36 16h-47v63z" />
    <glyph glyph-name="asterisk" unicode="*" horiz-adv-x="430" 
d="M186 716h60l-3 -131l124 43l19 -57l-126 -38l79 -105l-48 -35l-75 108l-75 -108l-48 35l79 105l-126 38l18 57l125 -43z" />
    <glyph glyph-name="plus" unicode="+" horiz-adv-x="535" 
d="M234 512h67v-184h184v-64h-184v-184h-67v184h-184v64h184v184z" />
    <glyph glyph-name="comma" unicode="," horiz-adv-x="165" 
d="M50 65h65v-65l-26 -63h-23l11 63h-27v65z" />
    <glyph glyph-name="hyphen" unicode="-" horiz-adv-x="348" 
d="M50 301h248v-64h-248v64z" />
    <glyph glyph-name="period" unicode="." horiz-adv-x="165" 
d="M50 0v65h65v-65h-65z" />
    <glyph glyph-name="slash" unicode="/" horiz-adv-x="431" 
d="M39 0l286 700h68l-286 -700h-68z" />
    <glyph glyph-name="zero" unicode="0" horiz-adv-x="504" 
d="M48 234v193q0 67 17.5 116t47.5 75.5t64.5 38.5t74.5 12q39 0 73.5 -12t64.5 -38.5t48 -75.5t18 -116v-193q0 -67 -18 -116t-48 -75.5t-64.5 -38.5t-73.5 -12q-40 0 -74.5 12.5t-64.5 39t-47.5 75.5t-17.5 115zM389 243v176q0 52 -11 90t-31 58.5t-43.5 29.5t-51.5 9
q-62 0 -99.5 -43t-37.5 -144v-176q0 -52 11 -90t30.5 -58.5t43 -30t52.5 -9.5q60 0 98.5 43.5t38.5 144.5z" />
    <glyph glyph-name="one" unicode="1" horiz-adv-x="209" 
d="M161 660v-63v-597h-67v597h-59v63h126z" />
    <glyph glyph-name="two" unicode="2" horiz-adv-x="474" 
d="M234 669h15q34 0 66 -11.5t60.5 -34t46 -62.5t17.5 -92v-2q0 -42 -17.5 -77t-45 -61t-61 -49.5t-67.5 -46t-63 -46.5t-49 -55.5t-24 -67.5h321v-64h-397v38q0 43 14 80t38 63.5t54 51t61.5 43.5t62 41t54 42.5t38 48.5t14.5 60q0 69 -38 103.5t-86 34.5h-8
q-47 -1 -86 -33.5t-51 -98.5h-67l1 8q6 39 20.5 71t34 53t44 35t49 20.5t49.5 7.5z" />
    <glyph glyph-name="three" unicode="3" horiz-adv-x="482" 
d="M235 669h17q30 0 61 -9.5t60 -29t47.5 -54.5t18.5 -80v-14q0 -36 -13.5 -65.5t-36 -48.5t-51.5 -29q50 -14 79 -54.5t30 -97.5v-13q-1 -86 -58.5 -134t-135.5 -48h-18q-33 0 -64.5 11t-60.5 33t-49 60.5t-25 88.5l-1 5h65q10 -70 51 -102.5t91 -32.5h10q52 0 90 32.5
t38 88.5v6q0 61 -39 93.5t-103 32.5h-58v62h58q56 0 95.5 29.5t39.5 87.5v7q0 38 -22 64.5t-48 37t-51 10.5h-11q-47 0 -87 -31t-52 -95h-65v6q6 38 20.5 69t34 51.5t44 34.5t49.5 20.5t50 7.5z" />
    <glyph glyph-name="four" unicode="4" horiz-adv-x="491" 
d="M456 212v-64h-63v-148h-67v148h-288v75l207 440h67l-206 -451h220v288h67v-288h63z" />
    <glyph glyph-name="five" unicode="5" horiz-adv-x="485" 
d="M68 663h337v-63h-271v-198h79q77 0 105 -7q64 -15 98 -62.5t34 -112.5v-48q-1 -85 -58 -132.5t-135 -47.5h-18q-33 0 -64.5 10.5t-60.5 32.5t-49 60.5t-26 88.5v5h65q9 -69 50 -101.5t91 -32.5h11q52 0 90 33t38 94v40q0 62 -39.5 92t-107.5 30h-169v319z" />
    <glyph glyph-name="six" unicode="6" horiz-adv-x="487" 
d="M39 197v231q0 66 18 115t49 75.5t66.5 39t75.5 12.5q23 0 45 -4t44 -13t40.5 -24t33.5 -35.5t23 -49.5t9 -64h-67q0 28 -7.5 50t-20 36t-29.5 23.5t-34.5 13.5t-36.5 4q-30 0 -54 -9t-45.5 -28.5t-33.5 -57t-12 -89.5v-103q40 76 131 77h39q39 0 70.5 -12.5t50.5 -32.5
t31.5 -47.5t17.5 -55t5 -55.5q0 -37 -9 -70.5t-29 -64t-57.5 -49t-88.5 -18.5h-41q-89 1 -136 57t-48 148zM224 55h38q62 1 90.5 41t28.5 98t-28.5 99t-90.5 41h-38q-61 0 -90 -41t-29 -99q0 -36 11 -66t39 -51.5t69 -21.5z" />
    <glyph glyph-name="seven" unicode="7" horiz-adv-x="462" 
d="M37 663h384v-52l-266 -611h-68l261 599h-311v64z" />
    <glyph glyph-name="eight" unicode="8" horiz-adv-x="489" 
d="M229 669h31q45 0 87 -20t70.5 -60.5t29.5 -91.5v-14q0 -51 -28 -88t-74 -56q52 -17 80.5 -56.5t28.5 -94.5v-13q0 -80 -55.5 -131t-138.5 -51h-31q-83 0 -138.5 51t-55.5 131v13q1 55 29.5 94t79.5 57q-47 19 -74.5 56t-27.5 88v14q0 77 58 124.5t129 47.5zM380 487v6
q0 31 -13 54.5t-32.5 35.5t-39 17.5t-37.5 5.5h-28q-17 0 -36.5 -5.5t-39 -17.5t-32.5 -35.5t-13 -54.5v-6q0 -31 11.5 -54t31 -35.5t41 -18t45.5 -5.5h13q19 0 36 3t34.5 11.5t30 21t20.5 32.5t8 45zM387 179v7q0 63 -37.5 94t-98.5 31h-13q-61 0 -98.5 -31t-37.5 -94v-7
q0 -61 38.5 -92t90.5 -31h27q53 0 91 31t38 92z" />
    <glyph glyph-name="nine" unicode="9" horiz-adv-x="479" 
d="M445 465v-231q0 -66 -18.5 -115t-49.5 -75.5t-66 -39t-75 -12.5q-36 0 -68.5 9.5t-61.5 30.5t-47 59.5t-19 90.5h67q0 -66 38 -96.5t90 -30.5q30 0 54.5 9t45.5 28.5t33 57t12 89.5v103q-39 -77 -130 -77h-39q-40 0 -71 12.5t-50.5 32.5t-32 47.5t-17.5 54.5t-5 56
q0 37 9 70.5t29 64t57.5 49t88.5 18.5h41q89 -1 136 -57t49 -148zM259 607h-38q-62 -1 -90.5 -41t-28.5 -98t28.5 -99t90.5 -41h38q61 0 90 41t29 99t-29 98t-90 41z" />
    <glyph glyph-name="colon" unicode=":" horiz-adv-x="165" 
d="M50 336v64h65v-64h-65zM50 0v65h65v-65h-65z" />
    <glyph glyph-name="semicolon" unicode=";" horiz-adv-x="165" 
d="M50 400h65v-64h-65v64zM50 0v65h65v-65l-26 -63h-23l11 63h-27z" />
    <glyph glyph-name="less" unicode="&#x3c;" horiz-adv-x="446" 
d="M50 336l346 197v-67l-241 -145l241 -145v-67l-346 197v30z" />
    <glyph glyph-name="equal" unicode="=" horiz-adv-x="535" 
d="M50 434h435v-63h-435v63zM50 269h435v-64h-435v64z" />
    <glyph glyph-name="greater" unicode="&#x3e;" horiz-adv-x="446" 
d="M50 466v67l346 -197v-30l-346 -197v67l241 145z" />
    <glyph glyph-name="question" unicode="?" horiz-adv-x="503" 
d="M247 707h15q34 0 66.5 -11t61 -33.5t46 -63t17.5 -92.5v-2q0 -39 -11 -68.5t-28 -47.5t-37.5 -32.5t-41.5 -27.5t-38 -28t-27.5 -38t-10.5 -54h-58q0 38 10 66.5t26.5 46.5t36 32.5t39.5 27.5t36.5 28.5t26.5 39.5t10 56q0 69 -38 103.5t-86 34.5h-8q-47 -1 -86 -33.5
t-51 -98.5h-67l1 6q5 39 19.5 71.5t34 53.5t44 35.5t48.5 21t50 7.5zM198 65h65v-65h-65v65z" />
    <glyph glyph-name="at" unicode="@" horiz-adv-x="778" 
d="M526 -124h-147q-91 0 -154.5 25t-102 76.5t-55.5 123.5t-17 173q0 97 17.5 166t57.5 117.5t106 71.5t162 23q63 0 113 -9.5t85 -25t60 -41.5t40 -53.5t23.5 -66.5t11 -75t2.5 -84v-156q0 -53 -34 -88t-91 -35q-79 -1 -105 64q-34 -79 -121 -79q-27 0 -50.5 9t-44 28
t-33 54.5t-12.5 84.5v165q0 48 12.5 83.5t33 55t44 28.5t50.5 9q83 0 117 -71l6 62h43v-370q0 -36 12 -53.5t47 -17.5q33 0 51 19t18 54v158q0 43 -2 72t-8.5 63t-18 56t-32 44.5t-49.5 35t-71 20.5t-96 8q-85 0 -140.5 -18.5t-88.5 -60t-46 -100t-13 -147.5t12.5 -150
t43 -107t84.5 -67.5t134 -21.5h146v-52zM294 317v-111q0 -152 97 -152q45 0 70.5 34t24.5 118v111q0 152 -96 152t-96 -152z" />
    <glyph glyph-name="A" unicode="A" horiz-adv-x="535" 
d="M423 0l-57 213h-196l-57 -213h-66l180 700h81l180 -700h-65zM179 279h177l-88 341z" />
    <glyph glyph-name="B" unicode="B" horiz-adv-x="476" 
d="M63 700h164q30 0 58 -5.5t54 -18t45.5 -31.5t31 -47t11.5 -63v-26q0 -55 -27.5 -91.5t-74.5 -54.5q37 -11 63.5 -33t41 -54.5t14.5 -73.5v-25q0 -85 -56 -131t-154 -46h-171v700zM363 507v13q0 59 -39.5 88t-97.5 29h-98v-246h98q59 0 98 29t39 87zM378 189v15
q0 61 -38.5 93.5t-107.5 32.5h-104v-267h105q68 0 106.5 32t38.5 94z" />
    <glyph glyph-name="C" unicode="C" horiz-adv-x="497" 
d="M62 234v233q0 66 17.5 115t47.5 75.5t64.5 39t74.5 12.5q38 0 70.5 -11.5t61.5 -36t47 -70t20 -108.5v-16h-65l-1 15q-5 87 -41 125.5t-92 38.5q-29 0 -52.5 -9.5t-43 -30t-30.5 -58t-11 -90.5v-215q0 -53 11 -90.5t30.5 -58t43 -30t52.5 -9.5q55 0 91 37.5t42 123.5
l1 18h65v-15q-2 -63 -19.5 -108.5t-46.5 -70.5t-62 -36.5t-71 -11.5q-40 0 -74.5 12.5t-64.5 39t-47.5 75.5t-17.5 115z" />
    <glyph glyph-name="D" unicode="D" horiz-adv-x="505" 
d="M63 700h180q39 0 73 -12t64.5 -38t48 -75t17.5 -117v-216q0 -68 -17.5 -117t-48 -75t-64.5 -38t-73 -12h-180v700zM381 251v198q0 101 -39 144.5t-99 43.5h-115v-574h115q60 0 99 43.5t39 144.5z" />
    <glyph glyph-name="E" unicode="E" horiz-adv-x="398" 
d="M366 637h-238v-246h228v-63h-228v-265h238v-63h-303v700h303v-63z" />
    <glyph glyph-name="F" unicode="F" horiz-adv-x="390" 
d="M359 637h-231v-255h221v-64h-221v-318h-65v700h296v-63z" />
    <glyph glyph-name="G" unicode="G" horiz-adv-x="527" 
d="M62 234v233q0 67 17.5 115.5t47 75t64 39t73.5 12.5q31 0 58.5 -7t54 -24t45.5 -43t31 -67.5t13 -93.5v-10h-64v7q-3 93 -41 134t-97 41q-28 0 -51.5 -9.5t-43 -30t-30.5 -58t-11 -90.5v-215q0 -53 11 -90.5t30.5 -58t43 -30t51.5 -9.5q61 0 99.5 43t38.5 143v70h-130v63
h194v-140q0 -67 -17 -116t-47 -75.5t-64 -38.5t-74 -12q-39 0 -73.5 12.5t-64 39t-47 75t-17.5 115.5z" />
    <glyph glyph-name="H" unicode="H" horiz-adv-x="499" 
d="M371 700h65v-700h-65v328h-243v-328h-65v700h65v-309h243v309z" />
    <glyph glyph-name="I" unicode="I" horiz-adv-x="193" 
d="M63 0v700h67v-700h-67z" />
    <glyph glyph-name="J" unicode="J" horiz-adv-x="328" 
d="M200 700h65v-466q0 -51 -11 -92.5t-28.5 -68t-42 -45t-50.5 -27t-54 -9.5h-32v63h20q57 3 95 47.5t38 140.5v457z" />
    <glyph glyph-name="K" unicode="K" horiz-adv-x="507" 
d="M460 0h-79l-251 326v-326h-67v700h67v-306l231 306h77l-250 -342z" />
    <glyph glyph-name="L" unicode="L" horiz-adv-x="406" 
d="M128 63h231v-63h-296v700h65v-637z" />
    <glyph glyph-name="M" unicode="M" horiz-adv-x="636" 
d="M495 700h77v-700h-63v541l-170 -541h-45l-170 541v-541h-64v700h78l178 -570z" />
    <glyph glyph-name="N" unicode="N" horiz-adv-x="509" 
d="M385 700h64v-700h-65l-260 553v-553h-64v700h65l260 -553v553z" />
    <glyph glyph-name="O" unicode="O" horiz-adv-x="518" 
d="M55 234v233q0 66 17.5 115t47.5 75.5t64.5 39t74.5 12.5q39 0 73.5 -12t65 -38.5t48 -75.5t17.5 -116v-233q0 -67 -17.5 -116t-48 -75.5t-65 -38.5t-73.5 -12q-40 0 -74.5 12.5t-64.5 39t-47.5 75.5t-17.5 115zM396 243v215q0 53 -11 90.5t-31 58t-43.5 30t-51.5 9.5
q-29 0 -52.5 -9.5t-43 -30t-30.5 -58t-11 -90.5v-215q0 -53 11 -90.5t30.5 -58t43 -30t52.5 -9.5q60 0 98.5 43.5t38.5 144.5z" />
    <glyph glyph-name="P" unicode="P" horiz-adv-x="487" 
d="M63 700h155q40 0 75.5 -9.5t66.5 -29.5t49.5 -56.5t18.5 -85.5v-37q0 -46 -17.5 -82t-47.5 -56.5t-64.5 -30.5t-73.5 -11h-97v-302h-65v700zM364 492v17q0 37 -11.5 63t-32.5 39.5t-44 19.5t-50 6h-98v-272h98q27 0 50 6t44 20t32.5 40t11.5 61z" />
    <glyph glyph-name="Q" unicode="Q" horiz-adv-x="558" 
d="M496 55v-63h-220h-12q-39 0 -73.5 12.5t-64 39t-47 75t-17.5 115.5v233q0 67 17.5 115.5t47 75t64 39t73.5 12.5q31 0 59 -7t55 -24.5t46.5 -44.5t31 -69.5t11.5 -96.5v-233q0 -116 -53 -179h82zM128 458v-215q0 -53 11 -90.5t30.5 -58t43 -30t51.5 -9.5h2h5
q58 3 94.5 46.5t36.5 141.5v215q0 53 -11 90.5t-31 58t-43.5 30t-52.5 9.5q-61 0 -98.5 -43.5t-37.5 -144.5z" />
    <glyph glyph-name="R" unicode="R" horiz-adv-x="490" 
d="M63 700h162q40 0 75.5 -9.5t66.5 -29t49.5 -56t18.5 -86.5v-29q0 -67 -35.5 -107t-91.5 -55l135 -328h-69l-126 309h-120v-309h-65v700zM371 500v9q0 37 -11.5 63t-32 39.5t-43.5 19.5t-51 6h-105v-265h105q27 0 50.5 6t44 20t32 40t11.5 62z" />
    <glyph glyph-name="S" unicode="S" horiz-adv-x="500" 
d="M46 210h63q0 -33 8.5 -60t22.5 -44.5t32.5 -29t37.5 -16.5t39 -5q42 0 73 14t49 44t18 75q0 34 -10 58.5t-31 41t-44.5 27t-58.5 20.5q-22 6 -32 9.5t-32.5 12t-35 17t-30.5 23.5t-27 31.5t-16 41t-7 52.5q0 51 16 88.5t44 58t60.5 30.5t69.5 10q36 0 68.5 -11.5t61 -36
t45 -69t16.5 -102.5h-63q0 77 -37.5 116.5t-90.5 39.5t-89 -30.5t-36 -89.5q0 -17 3.5 -31.5t10.5 -25.5t14 -19.5t18 -16t19 -12t21 -9t20 -6.5t19.5 -5.5t16.5 -4.5q95 -26 138.5 -74.5t43.5 -127.5q0 -55 -16 -95.5t-45.5 -63t-64.5 -33t-79 -10.5q-37 0 -71.5 11.5
t-64.5 36t-48.5 68.5t-18.5 102z" />
    <glyph glyph-name="T" unicode="T" horiz-adv-x="452" 
d="M405 700v-63h-146v-637h-65v637h-147v63h358z" />
    <glyph glyph-name="U" unicode="U" horiz-adv-x="524" 
d="M128 240v460h-65v-469q0 -66 17 -114t46 -74.5t63 -38.5t74 -12q39 0 73 12t63.5 38t47 74.5t17.5 114.5v469h-65v-460q0 -98 -38.5 -141.5t-97.5 -43.5q-60 0 -97.5 43.5t-37.5 141.5z" />
    <glyph glyph-name="V" unicode="V" horiz-adv-x="536" 
d="M423 700h66l-180 -700h-82l-180 700h66l155 -596z" />
    <glyph glyph-name="W" unicode="W" horiz-adv-x="804" 
d="M691 700h66l-154 -700h-75l-126 546l-127 -546h-74l-154 700h66l129 -587l129 587h62l129 -587z" />
    <glyph glyph-name="X" unicode="X" horiz-adv-x="508" 
d="M458 700l-162 -346l165 -354h-69l-137 288l-139 -288h-69l165 353l-162 347h69l135 -285l136 285h68z" />
    <glyph glyph-name="Y" unicode="Y" horiz-adv-x="512" 
d="M396 700h69l-177 -412v-288h-67v288l-174 412h69l139 -338z" />
    <glyph glyph-name="Z" unicode="Z" horiz-adv-x="509" 
d="M118 64h345v-64h-417v55l339 582h-331v63h403v-56z" />
    <glyph glyph-name="bracketleft" unicode="[" horiz-adv-x="232" 
d="M182 686h-65v-762h65v-64h-132v890h132v-64z" />
    <glyph glyph-name="backslash" unicode="\" horiz-adv-x="431" 
d="M39 700h68l286 -700h-68z" />
    <glyph glyph-name="bracketright" unicode="]" horiz-adv-x="232" 
d="M50 750h132v-890h-132v64h65v762h-65v64z" />
    <glyph glyph-name="asciicircum" unicode="^" horiz-adv-x="483" 
d="M50 410l191 278l192 -278h-53l-139 205l-138 -205h-53z" />
    <glyph glyph-name="underscore" unicode="_" horiz-adv-x="514" 
d="M50 -54h414v-64h-414v64z" />
    <glyph glyph-name="grave" unicode="`" horiz-adv-x="240" 
d="M53 707h75l59 -131h-48z" />
    <glyph glyph-name="a" unicode="a" horiz-adv-x="393" 
d="M304 500h42v-500h-42l-6 65q-34 -73 -117 -73q-21 0 -40.5 5t-38 18t-32 32.5t-21.5 50.5t-8 70v165q0 48 12 84t33 55t44.5 28t50.5 9q83 0 117 -71zM97 306v-111q0 -152 97 -152q45 0 70.5 34t25.5 118v111q0 152 -96 152q-97 0 -97 -152z" />
    <glyph glyph-name="b" unicode="b" horiz-adv-x="395" 
d="M105 700v-257q33 66 110 66q27 0 50.5 -9t44 -28t32.5 -55t12 -84v-165q0 -48 -12 -84t-32.5 -55t-44 -28t-50.5 -9q-84 0 -118 74l-6 -66h-42v700h56zM298 195v111q0 152 -97 152q-96 0 -96 -152v-111q0 -84 25.5 -118t70.5 -34q97 0 97 152z" />
    <glyph glyph-name="c" unicode="c" horiz-adv-x="384" 
d="M41 168v165q0 48 13 83.5t35.5 55t48.5 28.5t55 9t54 -8.5t47.5 -26.5t36 -52t14.5 -80v-18h-55q-3 134 -97 134q-44 0 -70 -34t-26 -118v-111q0 -84 25.5 -118t70.5 -34q95 0 97 134h55v-17q-1 -46 -14.5 -80t-36 -52.5t-47.5 -27t-54 -8.5t-55 9t-48.5 28.5t-35.5 55
t-13 83.5z" />
    <glyph glyph-name="d" unicode="d" horiz-adv-x="393" 
d="M290 700h56v-700h-42l-6 66q-35 -74 -118 -74q-27 0 -50.5 9t-44 28t-32.5 55t-12 84v165q0 33 5.5 60t15.5 45.5t23 32.5t29 22t32 12t34 4q77 0 110 -66v257zM97 306v-111q0 -152 97 -152q45 0 70.5 34t25.5 118v111q0 152 -96 152q-97 0 -97 -152z" />
    <glyph glyph-name="e" unicode="e" horiz-adv-x="385" 
d="M41 168v165q0 48 13 83.5t35.5 55t48.5 28.5t55 9t54.5 -9t48.5 -28t36 -55t13 -84v-108h-248v-44q0 -76 26 -107t70 -31q92 0 96 119h56q0 -47 -13.5 -81.5t-36 -53t-48 -27t-54.5 -8.5t-55 9t-48.5 28.5t-35.5 55t-13 83.5zM289 269v55q0 134 -96 134t-96 -135v-54h192
z" />
    <glyph glyph-name="f" unicode="f" horiz-adv-x="313" 
d="M249 709h27v-51h-14q-36 0 -54 -9.5t-28 -39.5t-10 -89v-20h106v-52h-106v-448h-56v448h-77v51h76v34q0 43 6.5 74.5t17.5 50.5t28.5 30.5t37 16t46.5 4.5z" />
    <glyph glyph-name="g" unicode="g" 
d="M41 176v157q0 33 5.5 60t15.5 45.5t23 32.5t29 22t32 12t34 4q83 0 118 -72l6 63h42v-499q0 -47 -13 -82t-35.5 -54t-48 -28t-55.5 -9q-51 0 -91 27t-54 86h58q21 -62 87 -62q96 0 96 132v57q-32 -68 -110 -68q-22 0 -41 5t-37.5 18t-31.5 32.5t-21 50.5t-8 70zM290 201
v105q0 84 -25.5 118t-70.5 34q-96 0 -97 -152v-105q0 -152 97 -152q14 0 25.5 3t23 9.5t19.5 18t14.5 28t10 40t3.5 53.5z" />
    <glyph glyph-name="h" unicode="h" horiz-adv-x="401" 
d="M107 700v-259q32 68 111 68q27 0 50.5 -9t44 -28t32 -55t11.5 -84v-333h-56v306q0 152 -97 152q-96 0 -96 -140v-318h-56v700h56z" />
    <glyph glyph-name="i" unicode="i" horiz-adv-x="165" 
d="M51 585v61h65v-61h-65zM55 0v500h57v-500h-57z" />
    <glyph glyph-name="j" unicode="j" horiz-adv-x="263" 
d="M151 645h64v-59h-64v59zM155 500h56v-497q0 -54 -9 -89.5t-28.5 -54t-42.5 -25.5t-58 -7h-24v51h12q37 1 55.5 10.5t28.5 40t10 91.5v480z" />
    <glyph glyph-name="k" unicode="k" horiz-adv-x="370" 
d="M334 0h-61l-169 226v-226h-56v700h56v-414l160 214h60l-171 -244z" />
    <glyph glyph-name="l" unicode="l" horiz-adv-x="152" 
d="M51 0v700h56v-700h-56z" />
    <glyph glyph-name="m" unicode="m" horiz-adv-x="646" 
d="M91 500l7 -65q34 74 117 74q42 0 75.5 -21.5t48.5 -68.5q16 45 48.5 67.5t75.5 22.5q27 0 50.5 -9t44 -28t32 -55t11.5 -84v-333h-56v306q0 152 -97 152q-86 0 -94 -110v-348h-56v306q0 152 -97 152q-96 0 -96 -136v-322h-56v500h42z" />
    <glyph glyph-name="n" unicode="n" horiz-adv-x="398" 
d="M91 500l7 -65q34 74 117 74q27 0 50.5 -9t44 -28t32.5 -55t12 -84v-333h-56v306q0 152 -97 152q-96 0 -96 -140v-318h-56v500h42z" />
    <glyph glyph-name="o" unicode="o" horiz-adv-x="387" 
d="M41 168v165q0 48 13 83.5t35.5 55t48.5 28.5t55 9t55 -9t49 -28t36 -55t13 -84v-165q0 -48 -13 -84t-36 -55t-49 -28t-55 -9t-55 9t-48.5 28.5t-35.5 55t-13 83.5zM290 195v111q0 152 -97 152q-44 0 -70 -34t-26 -118v-111q0 -84 25.5 -118t70.5 -34q97 0 97 152z" />
    <glyph glyph-name="p" unicode="p" 
d="M90 500l6 -66q34 74 118 74q27 0 50.5 -9t44 -28t32.5 -54.5t12 -84.5v-165q0 -48 -12 -83.5t-32.5 -55t-44 -28.5t-50.5 -9q-78 0 -110 66v-220h-56v663h42zM297 194v111q-1 152 -97 152q-45 0 -70.5 -34t-25.5 -118v-111q0 -152 96 -152q97 0 97 152z" />
    <glyph glyph-name="q" unicode="q" horiz-adv-x="393" 
d="M304 500h42v-663h-56v220q-33 -66 -110 -66q-22 0 -41 5.5t-37.5 18t-31.5 32.5t-21 50.5t-8 69.5v165q0 25 3 46.5t9 38t14 30.5t18 24t21 17t23.5 11.5t25 6.5t25.5 2q83 0 118 -74zM97 305v-111q0 -152 97 -152q96 0 96 152v111q0 84 -25.5 118t-70.5 34
q-97 0 -97 -152z" />
    <glyph glyph-name="r" unicode="r" horiz-adv-x="264" 
d="M91 500l8 -78q13 28 33.5 48t44.5 29.5t51 9.5v-51q-55 0 -89 -39.5t-34 -119.5v-299h-56v500h42z" />
    <glyph glyph-name="s" unicode="s" horiz-adv-x="376" 
d="M91 149v-9q2 -51 30 -74t67 -23q97 0 97 92q0 44 -25 68.5t-75 39.5q-21 5 -37 10.5t-36 16.5t-33 24.5t-21.5 35.5t-8.5 48q0 67 40.5 99t102.5 32q57 0 99.5 -37t44.5 -108v-10h-56v11q-3 48 -27.5 70.5t-60.5 22.5q-87 0 -87 -77q0 -21 8.5 -37t25 -26t27.5 -14
t29 -10q4 -1 6 -2q76 -20 108.5 -58.5t32.5 -96.5q0 -50 -21.5 -83.5t-55 -47.5t-77.5 -14q-59 0 -105 37t-48 109v11h56z" />
    <glyph glyph-name="t" unicode="t" horiz-adv-x="313" 
d="M170 450v-260q0 -50 4.5 -79t17 -44.5t28 -20t44.5 -4.5h12v-51h-25q-35 0 -58 6.5t-42.5 25t-28.5 56t-9 95.5v276h-76v50h76v153h57v-153h106v-50h-106z" />
    <glyph glyph-name="u" unicode="u" 
d="M294 500h56v-500h-43l-6 65q-34 -74 -118 -74q-27 0 -50.5 9t-44 28t-32 55t-11.5 84v333h56v-306q0 -152 97 -152q96 0 96 140v318z" />
    <glyph glyph-name="v" unicode="v" horiz-adv-x="445" 
d="M351 500h57l-153 -500h-65l-153 500h56l129 -414z" />
    <glyph glyph-name="w" unicode="w" horiz-adv-x="667" 
d="M573 500h57l-123 -500h-67l-107 392l-106 -392h-67l-123 500h56l104 -421l112 421h49l112 -421z" />
    <glyph glyph-name="x" unicode="x" horiz-adv-x="399" 
d="M361 500l-120 -247l122 -253h-59l-104 204l-105 -204h-58l122 252l-120 248h58l103 -212l102 212h59z" />
    <glyph glyph-name="y" unicode="y" horiz-adv-x="378" 
d="M286 500h56v-508q-2 -45 -15.5 -78t-36 -51t-47.5 -26.5t-53 -8.5q-51 0 -91.5 27t-54.5 86h59q20 -62 86 -62q97 0 97 132v57q-33 -68 -111 -68q-27 0 -50.5 9t-44 28t-32 55t-11.5 84v324h56v-297q0 -152 96 -152t97 152v297z" />
    <glyph glyph-name="z" unicode="z" horiz-adv-x="372" 
d="M99 51h237v-51h-299v44l235 404h-224v52h285v-44z" />
    <glyph glyph-name="braceleft" unicode="{" horiz-adv-x="368" 
d="M261 750h57v-63h-47q-20 0 -35.5 -16t-15.5 -41v-196q0 -30 -9 -55.5t-28.5 -44.5t-46.5 -26q41 -12 62.5 -44t21.5 -76v-209q0 -24 15.5 -40t35.5 -16h47v-63h-57q-47 0 -77 30.5t-31 80.5v201q-1 99 -98 104h-5v63h5q46 2 72 27.5t27 75.5v197q0 51 30 81t77 30z" />
    <glyph glyph-name="bar" unicode="|" horiz-adv-x="167" 
d="M50 700h67v-760h-67v760z" />
    <glyph glyph-name="braceright" unicode="}" horiz-adv-x="368" 
d="M50 750h57q47 0 77 -30t31 -81v-197q1 -50 26.5 -75.5t71.5 -27.5h5v-63h-5q-96 -4 -98 -105v-200q-1 -33 -15 -58.5t-38 -39t-55 -13.5h-57v64h47q21 0 36 16t15 40v208q0 29 9.5 52.5t28.5 41.5t46 26q-40 12 -62 46t-22 80v196q0 24 -15 40t-36 16h-47v64z" />
    <glyph glyph-name="asciitilde" unicode="~" horiz-adv-x="563" 
d="M101 202h-51q0 44 13 78.5t40.5 56t65.5 21.5q29 0 51.5 -10t54.5 -30q4 -4 15 -12l16.5 -12t15.5 -10.5t17.5 -9.5t17 -6.5t19.5 -5t21 -1.5q31 1 48 24.5t17 59.5h51q0 -41 -12 -73.5t-37.5 -52.5t-60.5 -20q-18 0 -33 3t-31 11t-25 13.5t-27.5 18.5t-24.5 18
q-48 34 -86 33q-35 -1 -55 -27.5t-20 -66.5z" />
    <glyph glyph-name="exclamdown" unicode="&#xa1;" horiz-adv-x="165" 
d="M50 538h65v-65h-65v65zM60 374h44l7 -296v-241h-58v241z" />
    <glyph glyph-name="cent" unicode="&#xa2;" horiz-adv-x="386" 
d="M165 601h57v-96q52 -8 86.5 -47t36.5 -116v-18h-55q-3 134 -97 134q-21 0 -37.5 -7t-30 -23.5t-21 -47t-7.5 -74.5v-111q0 -84 25.5 -118t70.5 -34q95 0 97 134h55v-17q-1 -40 -11.5 -71t-28 -49.5t-38.5 -29t-45 -14.5v-94h-57v94q-54 8 -89 49t-35 123v165q0 82 35 123
t89 49v96z" />
    <glyph glyph-name="sterling" unicode="&#xa3;" horiz-adv-x="535" 
d="M497 472h-66v6q-5 90 -41.5 129t-93.5 39q-28 0 -51.5 -9.5t-43.5 -30t-30.5 -58t-10.5 -90.5v-78h152v-64h-152v-252h310v-64h-432v64h55v252h-55v64h55v91q1 66 18.5 114t47 74t64 38t73.5 12q38 0 71.5 -11.5t62.5 -36.5t47 -71t20 -109v-9z" />
    <glyph glyph-name="currency" unicode="&#xa4;" horiz-adv-x="600" 
 />
    <glyph glyph-name="yen" unicode="&#xa5;" horiz-adv-x="555" 
d="M452 700h69l-147 -266h121v-64h-147l-30 -51l-1 -18h178v-63h-184v-238h-67v238h-183v63h178l-2 18l-29 51h-147v64h121l-148 266h70l173 -324z" />
    <glyph glyph-name="brokenbar" unicode="&#xa6;" horiz-adv-x="167" 
d="M50 700h67v-320h-67v320zM50 260h67v-320h-67v320z" />
    <glyph glyph-name="section" unicode="&#xa7;" horiz-adv-x="418" 
d="M101 87v-8q1 -58 33.5 -85t74.5 -27q49 0 78.5 24t29.5 76t-29.5 78t-85.5 42q-22 5 -39.5 11t-38.5 18t-35 27t-24 39t-10 53q0 76 57 112q-57 39 -57 109q0 73 45 108.5t111 35.5q65 0 111.5 -41t47.5 -121v-8h-62v7q-1 54 -29 80.5t-68 26.5t-67 -21t-27 -64
q0 -14 4 -26t8.5 -20.5t15 -16.5t17 -12t20.5 -9.5t20 -7.5l21 -7q156 -39 156 -169q0 -71 -42 -112q42 -43 42 -109q0 -80 -48 -120t-122 -40q-30 0 -58.5 10t-54 29t-41.5 52.5t-16 76.5v9h62zM171 419q-57 -19 -57 -81q0 -11 2 -21t7 -18t9.5 -14.5t12.5 -12t13.5 -9
t16 -7.5t16 -6t16.5 -5.5t15 -5.5q41 -13 65 -30q34 26 34 81q0 47 -27 71.5t-77 41.5q-44 15 -46 16z" />
    <glyph glyph-name="dieresis" unicode="&#xa8;" horiz-adv-x="281" 
d="M52 639v61h61v-61h-61zM169 639v61h61v-61h-61z" />
    <glyph glyph-name="copyright" unicode="&#xa9;" horiz-adv-x="603" 
d="M301.5 700q111.5 0 189 -79.5t77.5 -190.5q0 -72 -35 -134t-96.5 -98.5t-134.5 -36.5q-112 0 -189 79.5t-77 190t77 190t188.5 79.5zM302 660q-97 0 -160.5 -67t-63.5 -162.5t63.5 -162.5t160.5 -67t161 67t64 162q0 63 -28.5 115.5t-80.5 83.5t-116 31zM188 410v41
q0 42 9.5 72.5t26 47.5t36 25t41.5 8q30 0 52.5 -10.5t40.5 -37.5t22 -69v-6h-36q-7 49 -27 69t-52 20q-36 0 -56 -30t-20 -106v-7q0 -76 20 -106t57 -30q32 0 52 20t26 69h36v-6q-7 -62 -38 -89t-76 -27q-19 0 -34.5 4.5t-30.5 15.5t-25.5 28t-17 44t-6.5 60z" />
    <glyph glyph-name="ordfeminine" unicode="&#xaa;" horiz-adv-x="393" 
d="M304 500h42v-500h-42l-6 65q-34 -73 -117 -73q-21 0 -40.5 5t-38 18t-32 32.5t-21.5 50.5t-8 70v165q0 48 12 84t33 55t44.5 28t50.5 9q83 0 117 -71zM97 306v-111q0 -152 97 -152q45 0 70.5 34t25.5 118v111q0 152 -96 152q-97 0 -97 -152z" />
    <glyph glyph-name="guillemotleft" unicode="&#xab;" horiz-adv-x="373" 
d="M50 306l131 110v-68l-93 -76l93 -75v-69l-131 110v68zM192 306l131 110v-68l-93 -76l93 -75v-69l-131 110v68z" />
    <glyph glyph-name="logicalnot" unicode="&#xac;" horiz-adv-x="535" 
d="M485 172h-67v116h-368v64h435v-180z" />
    <glyph glyph-name="registered" unicode="&#xae;" horiz-adv-x="603" 
d="M302 697q111 0 188.5 -79.5t77.5 -190t-77.5 -190.5t-188.5 -80t-188.5 80t-77.5 190.5t77.5 190t188.5 79.5zM302 657q-97 0 -161 -67t-64 -163t64 -162.5t161 -66.5t161 66.5t64 162.5q0 37 -10.5 72t-31 63.5t-47.5 50t-62 33t-74 11.5zM210 596h94q46 0 75.5 -25.5
t29.5 -66.5v-7q-2 -32 -22 -54t-51 -29l86 -155h-41l-81 146h-53v-146h-37v337zM247 443h56q31 0 49.5 15.5t18.5 43.5q0 18 -9 31.5t-24 20.5t-35 7h-56v-118z" />
    <glyph glyph-name="macron" unicode="&#xaf;" horiz-adv-x="384" 
d="M50 700h285v-52h-285v52z" />
    <glyph glyph-name="degree" unicode="&#xb0;" horiz-adv-x="352" 
d="M176 731q52 0 89 -36.5t37 -88.5q0 -53 -37 -90t-89 -37q-34 0 -63 17t-46 46t-17 64q0 52 37 88.5t89 36.5zM176 683q-32 0 -54.5 -22.5t-22.5 -54.5t22.5 -55t54.5 -23q21 0 39 10.5t28 28.5t10 39t-10 38.5t-28 28t-39 10.5z" />
    <glyph glyph-name="plusminus" unicode="&#xb1;" horiz-adv-x="535" 
d="M234 522h67v-123h184v-64h-184v-121h-67v121h-184v64h184v123zM485 13h-435v64h435v-64z" />
    <glyph glyph-name="acute" unicode="&#xb4;" horiz-adv-x="240" 
d="M111 706h76l-86 -130h-48z" />
    <glyph glyph-name="paragraph" unicode="&#xb6;" horiz-adv-x="586" 
d="M185 700h363v-64h-38v-799h-67v799h-97v-799h-67v471h-94q-62 0 -105 42.5t-43 105.5v96q0 29 12 56t31.5 47t47 32.5t57.5 12.5z" />
    <glyph glyph-name="periodcentered" unicode="&#xb7;" horiz-adv-x="165" 
d="M50 297v65h65v-65h-65z" />
    <glyph glyph-name="cedilla" unicode="&#xb8;" horiz-adv-x="227" 
d="M129 0h48v-54q0 -61 -22.5 -88t-79.5 -27h-25v44h24q31 1 43 18t12 54v53z" />
    <glyph glyph-name="ordmasculine" unicode="&#xba;" horiz-adv-x="387" 
d="M41 168v165q0 48 13 83.5t35.5 55t48.5 28.5t55 9t55 -9t49 -28t36 -55t13 -84v-165q0 -48 -13 -84t-36 -55t-49 -28t-55 -9t-55 9t-48.5 28.5t-35.5 55t-13 83.5zM290 195v111q0 152 -97 152q-44 0 -70 -34t-26 -118v-111q0 -84 25.5 -118t70.5 -34q97 0 97 152z" />
    <glyph glyph-name="guillemotright" unicode="&#xbb;" horiz-adv-x="373" 
d="M192 348v68l131 -110v-67l-131 -111v69l92 75zM50 348v68l131 -110v-67l-131 -111v69l93 75z" />
    <glyph glyph-name="onequarter" unicode="&#xbc;" horiz-adv-x="603" 
d="M44 700h79v-338h-46v296h-33v42zM396 700h52l-316 -700h-53zM438 338h47l-108 -227h104v145h46v-145h31v-42h-31v-69h-46v69h-153v45z" />
    <glyph glyph-name="onehalf" unicode="&#xbd;" horiz-adv-x="623" 
d="M44 700h79v-338h-46v296h-33v42zM396 700h52l-316 -700h-53zM469 340h11q39 0 68.5 -25t30.5 -75v-3q0 -25 -11 -45t-27.5 -33t-36 -26.5t-37 -25t-30 -28.5t-14.5 -36h152v-43h-209v26q0 29 12.5 52.5t31 37.5t40 28.5t40 26t31 29t12.5 38.5q0 31 -17 46t-37 15h-4
q-22 0 -40 -14.5t-24 -43.5h-46l1 4q6 47 36 70.5t67 24.5z" />
    <glyph glyph-name="threequarters" unicode="&#xbe;" horiz-adv-x="673" 
d="M140 703h13q22 -1 42.5 -8.5t36.5 -28t16 -50.5v-7q0 -24 -14.5 -43.5t-35.5 -24.5q24 -9 38.5 -30.5t14.5 -49.5v-8q0 -43 -29 -66.5t-70 -23.5h-12q-35 0 -66 24t-37 71v2h43q4 -19 14.5 -32t23 -18t26.5 -5h7q22 0 38.5 13t16.5 37v4q0 28 -17.5 44.5t-44.5 16.5h-32
v42h32q23 0 41 12t18 36v3q0 16 -8.5 27t-20 15.5t-23.5 4.5h-7q-21 0 -38.5 -12.5t-22.5 -38.5h-44v3q6 44 36 67t65 24zM473 700h53l-316 -700h-53zM509 338h47l-109 -227h104v145h47v-145h31v-42h-31v-69h-46v69h-153v45z" />
    <glyph glyph-name="questiondown" unicode="&#xbf;" horiz-adv-x="503" 
d="M305 479h-65v65h65v-65zM256 -163h-15q-34 0 -66.5 11t-61 33.5t-46 62.5t-17.5 93v2q0 30 6.5 55t18 42t26 30.5t30.5 24.5t32 21t31 21.5t26 25t17.5 33t6.5 43.5h58q0 -34 -8 -60.5t-21 -43t-29.5 -31t-34 -25t-34 -23.5t-29.5 -27t-21 -36.5t-8 -50.5
q0 -70 37.5 -104t86.5 -34h8q47 1 86 33t50 99h68l-1 -6q-7 -49 -27 -86.5t-48 -58.5t-58.5 -32t-62.5 -12z" />
    <glyph glyph-name="Agrave" unicode="&#xc0;" horiz-adv-x="535" 
d="M201 907h76l58 -131h-48zM227 700h81l180 -700h-65l-57 213h-196l-58 -213h-65zM356 279l-88 341l-89 -341h177z" />
    <glyph glyph-name="Aacute" unicode="&#xc1;" horiz-adv-x="535" 
d="M264 906h75l-85 -130h-48zM227 700h81l180 -700h-65l-57 213h-196l-58 -213h-65zM356 279l-88 341l-89 -341h177z" />
    <glyph glyph-name="Acircumflex" unicode="&#xc2;" horiz-adv-x="535" 
d="M236 902h65l100 -136h-50l-83 90l-83 -90h-50zM227 700h81l180 -700h-65l-57 213h-196l-57 -213h-66zM356 279l-88 341l-89 -341h177z" />
    <glyph glyph-name="Atilde" unicode="&#xc3;" horiz-adv-x="535" 
d="M360 902h45q0 -125 -69 -125q-18 0 -34.5 9t-42.5 35q-13 12 -22 18t-15 7.5t-14 1.5q-18 0 -24.5 -17t-6.5 -54h-45q0 125 70 125q19 0 34.5 -10t42.5 -34q27 -29 52 -27q17 1 23 17.5t6 53.5zM227 700h81l180 -700h-65l-57 213h-196l-58 -213h-65zM356 279l-88 341
l-89 -341h177z" />
    <glyph glyph-name="Adieresis" unicode="&#xc4;" horiz-adv-x="535" 
d="M180 900h60v-61h-60v61zM297 900h61v-61h-61v61zM227 700h81l180 -700h-65l-57 213h-196l-58 -213h-65zM356 279l-88 341l-89 -341h177z" />
    <glyph glyph-name="Aring" unicode="&#xc5;" horiz-adv-x="535" 
d="M268 920q40 0 69 -28.5t29 -68.5q0 -26 -13 -49t-35.5 -36t-49.5 -13q-41 0 -69 28.5t-28 69.5q0 40 28.5 68.5t68.5 28.5zM268 877q-22 0 -37.5 -16t-15.5 -38q0 -23 15 -39t38 -16t39 16t16 39q0 15 -7.5 27t-20 19.5t-27.5 7.5zM227 700h81l180 -700h-65l-57 213h-196
l-58 -213h-65zM356 279l-88 341l-89 -341h177z" />
    <glyph glyph-name="AE" unicode="&#xc6;" horiz-adv-x="606" 
d="M231 700h336v-63h-238v-246h228v-63h-228v-265h238v-63h-303v213h-90l-57 -213h-65zM264 279v313l-81 -313h81z" />
    <glyph glyph-name="Ccedilla" unicode="&#xc7;" horiz-adv-x="497" 
d="M62 234v233q0 66 17.5 115t47.5 75.5t64.5 39t74.5 12.5q38 0 70.5 -11.5t61.5 -36t47 -70t20 -108.5v-16h-65l-1 15q-5 87 -41 125.5t-92 38.5q-61 0 -99 -43.5t-38 -144.5v-215q0 -53 11 -90.5t30.5 -58t43 -30t52.5 -9.5q55 0 91 37.5t42 123.5l1 18h65v-15
q-3 -102 -45 -155t-108 -66v-49q0 -62 -22 -89.5t-78 -28.5h-27v45h27q29 1 40.5 17.5t11.5 52.5v47l-15 1q-37 2 -69 15.5t-59 40.5t-43 74t-16 110z" />
    <glyph glyph-name="Egrave" unicode="&#xc8;" horiz-adv-x="398" 
d="M132 907h76l58 -131h-48zM63 700h303v-63h-238v-246h228v-63h-228v-265h238v-63h-303v700z" />
    <glyph glyph-name="Eacute" unicode="&#xc9;" horiz-adv-x="398" 
d="M191 906h75l-85 -130h-49zM63 700h303v-63h-238v-246h228v-63h-228v-265h238v-63h-303v700z" />
    <glyph glyph-name="Ecircumflex" unicode="&#xca;" horiz-adv-x="398" 
d="M167 902h65l100 -136h-49l-84 90l-83 -90h-49zM63 700h303v-63h-238v-246h228v-63h-228v-265h238v-63h-303v700z" />
    <glyph glyph-name="Edieresis" unicode="&#xcb;" horiz-adv-x="398" 
d="M111 900h60v-61h-60v61zM228 900h61v-61h-61v61zM63 700h303v-63h-238v-246h228v-63h-228v-265h238v-63h-303v700z" />
    <glyph glyph-name="Igrave" unicode="&#xcc;" horiz-adv-x="193" 
d="M30 907h75l58 -131h-48zM63 0v700h67v-700h-67z" />
    <glyph glyph-name="Iacute" unicode="&#xcd;" horiz-adv-x="193" 
d="M88 906h75l-85 -130h-48zM63 0v700h67v-700h-67z" />
    <glyph glyph-name="Icircumflex" unicode="&#xce;" horiz-adv-x="193" 
d="M64 902h65l100 -136h-49l-83 90l-84 -90h-49zM63 0v700h67v-700h-67z" />
    <glyph glyph-name="Idieresis" unicode="&#xcf;" horiz-adv-x="193" 
d="M8 839v61h61v-61h-61zM125 839v61h61v-61h-61zM63 0v700h67v-700h-67z" />
    <glyph glyph-name="Eth" unicode="&#xd0;" horiz-adv-x="505" 
d="M63 700h180q39 0 73 -12t64.5 -38t48 -75t17.5 -117v-216q0 -68 -17.5 -117t-48 -75t-64.5 -38t-73 -12h-180v306h-46v64h46v330zM381 251v198q0 101 -39 144.5t-99 43.5h-115v-267h137v-64h-137v-243h115q60 0 99 43.5t39 144.5z" />
    <glyph glyph-name="Ntilde" unicode="&#xd1;" horiz-adv-x="509" 
d="M347 902h45q0 -125 -69 -125q-18 0 -34.5 9t-42.5 35q-18 18 -28.5 22.5t-22.5 4.5q-18 0 -24.5 -17t-6.5 -54h-45q0 125 70 125q20 0 35 -10t42 -34q27 -29 52 -27q17 1 23 17.5t6 53.5zM385 700h63v-700h-64l-260 553v-553h-64v700h65l260 -553v553z" />
    <glyph glyph-name="Ograve" unicode="&#xd2;" horiz-adv-x="518" 
d="M193 907h75l59 -131h-49zM55 234v233q0 66 17.5 115t47.5 75.5t64.5 39t74.5 12.5q39 0 73.5 -12t65 -38.5t48 -75.5t17.5 -116v-233q0 -67 -17.5 -116t-48 -75.5t-65 -38.5t-73.5 -12q-40 0 -74.5 12.5t-64.5 39t-47.5 75.5t-17.5 115zM396 243v215q0 53 -11 90.5
t-31 58t-43.5 30t-51.5 9.5q-29 0 -52.5 -9.5t-43 -30t-30.5 -58t-11 -90.5v-215q0 -53 11 -90.5t30.5 -58t43 -30t52.5 -9.5q60 0 98.5 43.5t38.5 144.5z" />
    <glyph glyph-name="Oacute" unicode="&#xd3;" horiz-adv-x="518" 
d="M251 906h76l-86 -130h-48zM55 234v233q0 66 17.5 115t47.5 75.5t64.5 39t74.5 12.5q39 0 73.5 -12t65 -38.5t48 -75.5t17.5 -116v-233q0 -67 -17.5 -116t-48 -75.5t-65 -38.5t-73.5 -12q-40 0 -74.5 12.5t-64.5 39t-47.5 75.5t-17.5 115zM396 243v215q0 53 -11 90.5
t-31 58t-43.5 30t-51.5 9.5q-29 0 -52.5 -9.5t-43 -30t-30.5 -58t-11 -90.5v-215q0 -53 11 -90.5t30.5 -58t43 -30t52.5 -9.5q60 0 98.5 43.5t38.5 144.5z" />
    <glyph glyph-name="Ocircumflex" unicode="&#xd4;" horiz-adv-x="518" 
d="M227 902h65l100 -136h-49l-83 90l-84 -90h-49zM55 234v233q0 66 17.5 115t47.5 75.5t64.5 39t74.5 12.5q39 0 73.5 -12t65 -38.5t48 -75.5t17.5 -116v-233q0 -67 -17.5 -116t-48 -75.5t-65 -38.5t-73.5 -12q-40 0 -74.5 12.5t-64.5 39t-47.5 75.5t-17.5 115zM397 243v215
q0 53 -11.5 90.5t-31.5 58t-43.5 30t-51.5 9.5q-29 0 -52.5 -9.5t-43 -30t-30.5 -58t-11 -90.5v-215q0 -53 11 -90.5t30.5 -58t43 -30t52.5 -9.5q60 0 99 43.5t39 144.5z" />
    <glyph glyph-name="Otilde" unicode="&#xd5;" horiz-adv-x="518" 
d="M353 902h44q0 -125 -69 -125q-18 0 -34 9t-43 35q-17 18 -27.5 22.5t-23.5 4.5q-9 0 -15 -4.5t-9.5 -13.5t-4.5 -21.5t-1 -31.5h-45q0 125 69 125q20 0 35.5 -10t41.5 -34q28 -29 53 -26q11 0 17.5 8.5t9 22.5t2.5 39zM55 234v233q0 67 17.5 115.5t47.5 75t64.5 39
t74.5 12.5q39 0 73.5 -12t65 -38.5t48 -75.5t17.5 -116v-233q0 -67 -17.5 -116t-48 -75.5t-65 -38.5t-73.5 -12q-40 0 -74.5 12.5t-64.5 39t-47.5 75.5t-17.5 115zM397 243v215q0 53 -11.5 90.5t-31.5 58t-43.5 30t-51.5 9.5q-61 0 -99 -43.5t-38 -144.5v-215q0 -52 11 -90
t30.5 -58.5t43 -30t52.5 -9.5q60 0 99 43.5t39 144.5z" />
    <glyph glyph-name="Odieresis" unicode="&#xd6;" horiz-adv-x="518" 
d="M171 839v61h61v-61h-61zM288 839v61h61v-61h-61zM55 234v233q0 66 17.5 115t47.5 75.5t64.5 39t74.5 12.5q39 0 73.5 -12t65 -38.5t48 -75.5t17.5 -116v-233q0 -67 -17.5 -116t-48 -75.5t-65 -38.5t-73.5 -12q-40 0 -74.5 12.5t-64.5 39t-47.5 75.5t-17.5 115zM397 243
v215q0 101 -39 144.5t-99 43.5q-29 0 -52.5 -9.5t-43 -30t-30.5 -58t-11 -90.5v-215q0 -53 11 -90.5t30.5 -58t43 -30t52.5 -9.5q60 0 99 43.5t39 144.5z" />
    <glyph glyph-name="multiply" unicode="&#xd7;" horiz-adv-x="452" 
d="M227 342l130 130l45 -45l-130 -130l130 -130l-47 -47l-130 130l-130 -130l-45 45l130 130l-130 130l47 47z" />
    <glyph glyph-name="Oslash" unicode="&#xd8;" horiz-adv-x="518" 
d="M446 750l-41 -100q58 -63 58 -183v-233q0 -67 -18 -116t-48 -75.5t-64.5 -38.5t-74.5 -12q-64 0 -112 30l-29 -72h-45l41 100q-58 63 -58 184v233q0 66 17.5 115t47.5 75.5t64.5 39t73.5 12.5q66 0 114 -31l29 72h45zM122 458v-215q0 -73 22 -119l202 491q-34 31 -87 31
q-61 0 -99 -43.5t-38 -144.5zM397 243v215q0 73 -23 118l-202 -491q34 -30 87 -30q60 0 99 43.5t39 144.5z" />
    <glyph glyph-name="Ugrave" unicode="&#xd9;" horiz-adv-x="524" 
d="M195 907h76l58 -131h-48zM128 240v460h-65v-469q0 -66 17 -114t46 -74.5t63 -38.5t74 -12q39 0 73 12t63.5 38t47 74.5t17.5 114.5v469h-65v-460q0 -98 -38.5 -141.5t-97.5 -43.5q-60 0 -97.5 43.5t-37.5 141.5z" />
    <glyph glyph-name="Uacute" unicode="&#xda;" horiz-adv-x="524" 
d="M254 906h75l-86 -130h-48zM128 240v460h-65v-469q0 -66 17 -114t46 -74.5t63 -38.5t74 -12q39 0 73 12t63.5 38t47 74.5t17.5 114.5v469h-65v-460q0 -98 -38.5 -141.5t-97.5 -43.5q-60 0 -97.5 43.5t-37.5 141.5z" />
    <glyph glyph-name="Ucircumflex" unicode="&#xdb;" horiz-adv-x="524" 
d="M230 902h65l100 -136h-50l-83 90l-83 -90h-50zM128 240v460h-65v-469q0 -66 17 -114t46 -74.5t63 -38.5t74 -12q39 0 73 12t63.5 38t47 74.5t17.5 114.5v469h-65v-460q0 -98 -38 -141.5t-98 -43.5t-97.5 43.5t-37.5 141.5z" />
    <glyph glyph-name="Udieresis" unicode="&#xdc;" horiz-adv-x="524" 
d="M173 839v61h61v-61h-61zM291 839v61h61v-61h-61zM128 240v460h-65v-469q0 -66 17 -114t46 -74.5t63 -38.5t74 -12q39 0 73 12t63.5 38t47 74.5t17.5 114.5v469h-65v-460q0 -98 -38.5 -141.5t-97.5 -43.5q-60 0 -97.5 43.5t-37.5 141.5z" />
    <glyph glyph-name="Yacute" unicode="&#xdd;" horiz-adv-x="512" 
d="M248 906h75l-85 -130h-48zM396 700h69l-177 -412v-288h-67v288l-174 412h69l139 -338z" />
    <glyph glyph-name="Thorn" unicode="&#xde;" horiz-adv-x="465" 
d="M63 706h65v-113h75q39 0 73.5 -10t64.5 -30t48 -56t18 -84v-30q0 -38 -12 -68.5t-31.5 -51t-46.5 -34t-55 -20t-59 -6.5h-75v-203h-65v706zM343 393v10q0 37 -12 63t-32.5 39.5t-43.5 19.5t-50 6h-77v-266h77q27 0 50 6.5t43.5 20t32.5 39.5t12 62z" />
    <glyph glyph-name="germandbls" unicode="&#xdf;" horiz-adv-x="525" 
d="M249 703h26q21 0 41.5 -3.5t41 -10t38.5 -16.5t33 -25t26 -33t17.5 -41.5t6.5 -50.5v-16q0 -55 -27.5 -92.5t-70.5 -52.5q52 -14 82 -55t30 -102v-15q0 -95 -59.5 -142.5t-156.5 -47.5h-101v63h101q71 0 110 32.5t40 92.5v15q0 60 -39.5 93t-111.5 33h-42v64h35
q64 0 103.5 29t39.5 86v14q0 57 -39.5 87t-97.5 30h-26q-56 0 -96 -30t-41 -89v-520h-67v516q0 49 17.5 86.5t47.5 58.5t65 31t74 11z" />
    <glyph glyph-name="agrave" unicode="&#xe0;" horiz-adv-x="393" 
d="M130 707h76l58 -131h-48zM41 168v165q0 48 12 84t33 55t44.5 28t50.5 9q83 0 117 -71l6 62h42v-500h-42l-6 65q-34 -73 -117 -73q-21 0 -40.5 5t-38 18t-32 32.5t-21.5 50.5t-8 70zM290 195v111q0 152 -96 152q-97 0 -97 -152v-111q0 -152 97 -152q45 0 70.5 34t25.5 118
z" />
    <glyph glyph-name="aacute" unicode="&#xe1;" horiz-adv-x="393" 
d="M189 706h75l-86 -130h-48zM304 500h42v-500h-42l-6 65q-34 -73 -117 -73q-21 0 -40.5 5t-38 18t-32 32.5t-21.5 50.5t-8 70v165q0 48 12 84t33 55t44.5 28t50.5 9q83 0 117 -71zM97 306v-111q0 -152 97 -152q45 0 70.5 34t25.5 118v111q0 152 -96 152q-97 0 -97 -152z
" />
    <glyph glyph-name="acircumflex" unicode="&#xe2;" horiz-adv-x="393" 
d="M165 702h65l100 -136h-50l-83 90l-83 -90h-50zM304 500h42v-500h-42l-6 65q-34 -73 -117 -73q-21 0 -40.5 5t-38 18t-32 32.5t-21.5 50.5t-8 70v165q0 48 12 84t33 55t44.5 28t50.5 9q83 0 117 -71zM97 306v-111q0 -152 97 -152q45 0 70.5 34t25.5 118v111q0 152 -96 152
q-97 0 -97 -152z" />
    <glyph glyph-name="atilde" unicode="&#xe3;" horiz-adv-x="393" 
d="M289 702h45q0 -124 -69 -124q-18 0 -34.5 8.5t-42.5 34.5q-18 18 -28.5 23t-22.5 4q-12 0 -19 -8t-9.5 -23t-2.5 -39h-44q0 124 69 124q20 0 35.5 -10t41.5 -34q27 -29 53 -26q17 1 22.5 17t5.5 53zM304 500h42v-500h-42l-6 65q-34 -73 -117 -73q-21 0 -40.5 5t-38 18
t-32 32.5t-21.5 50.5t-8 70v165q0 48 12 84t33 55t44.5 28t50.5 9q83 0 117 -71zM97 306v-111q1 -152 97 -152q45 0 70.5 34t25.5 118v111q0 152 -96 152q-97 0 -97 -152z" />
    <glyph glyph-name="adieresis" unicode="&#xe4;" horiz-adv-x="393" 
d="M108 639v61h61v-61h-61zM226 639v61h61v-61h-61zM304 500h42v-500h-42l-6 65q-34 -73 -117 -73q-21 0 -40.5 5t-38 18t-32 32.5t-21.5 50.5t-8 70v165q0 48 12 84t33 55t44.5 28t50.5 9q83 0 117 -71zM97 306v-111q0 -152 97 -152q45 0 70.5 34t25.5 118v111
q0 152 -96 152q-97 0 -97 -152z" />
    <glyph glyph-name="aring" unicode="&#xe5;" horiz-adv-x="393" 
d="M197 720q40 0 69 -28.5t29 -68.5q0 -26 -13 -49t-35.5 -36t-49.5 -13q-41 0 -69 28.5t-28 69.5q0 40 28.5 68.5t68.5 28.5zM197 677q-22 0 -38 -16t-16 -38q0 -15 7 -27.5t19.5 -20t27.5 -7.5q23 0 39 16t16 39q0 15 -7.5 27t-20 19.5t-27.5 7.5zM304 500h42v-500h-42
l-6 65q-34 -73 -117 -73q-21 0 -40.5 5t-38 18t-32 32.5t-21.5 50.5t-8 70v165q0 48 12 84t33 55t44.5 28t50.5 9q83 0 117 -71zM97 306v-111q0 -152 97 -152q45 0 70.5 34t25.5 118v111q0 152 -96 152q-97 0 -97 -152z" />
    <glyph glyph-name="ae" unicode="&#xe6;" horiz-adv-x="653" 
d="M41 168v165q0 48 12 84t33 55t44.5 28t50.5 9q83 0 117 -71l6 62h42v-51q36 60 114 60q29 0 54.5 -9t48.5 -28t36 -55t13 -84v-108h-248v-44q0 -138 96 -138q91 0 96 119h56q-1 -47 -14.5 -81.5t-36 -53t-47.5 -27t-54 -8.5q-78 0 -114 60v-52h-42l-6 65
q-34 -73 -117 -73q-27 0 -50.5 9t-44.5 28t-33 55t-12 84zM290 195v111q0 152 -96 152q-97 0 -97 -152v-111q0 -152 97 -152q45 0 70.5 34t25.5 118zM556 269v54q-1 134 -96 135q-96 0 -96 -135v-54h192z" />
    <glyph glyph-name="ccedilla" unicode="&#xe7;" horiz-adv-x="384" 
d="M41 168v165q0 48 13 83.5t35.5 55t48.5 28.5t55 9q16 0 31 -2.5t30 -8t28 -14.5t24.5 -22.5t19.5 -30t13 -39t6 -49.5v-19h-55q-3 134 -97 134q-21 0 -37 -7t-30 -23.5t-21.5 -47t-7.5 -74.5v-111q0 -84 25.5 -118t70.5 -34q95 0 97 134h55v-17q-3 -122 -88 -156v-56
q-1 -62 -23.5 -89.5t-79.5 -27.5h-25v44h25q15 0 25.5 4.5t17 13.5t9 22t2.5 32v49q-13 -2 -32 -1q-58 4 -96.5 45.5t-38.5 127.5z" />
    <glyph glyph-name="egrave" unicode="&#xe8;" horiz-adv-x="385" 
d="M125 707h76l58 -131h-48zM41 168v165q0 48 13 83.5t35.5 55t48.5 28.5t55 9t54.5 -9t48.5 -28t36 -55t13 -84v-108h-248v-44q0 -76 26 -107t70 -31q92 0 96 119h56q0 -47 -13.5 -81.5t-36 -53t-48 -27t-54.5 -8.5t-55 9t-48.5 28.5t-35.5 55t-13 83.5zM289 269v55
q0 134 -96 134t-96 -135v-54h192z" />
    <glyph glyph-name="eacute" unicode="&#xe9;" horiz-adv-x="385" 
d="M184 706h75l-85 -130h-49zM41 168v165q0 48 13 83.5t35.5 55t48.5 28.5t55 9t54.5 -9t48.5 -28t36 -55t13 -84v-108h-248v-44q0 -76 26 -107t70 -31q92 0 96 119h56q0 -47 -13.5 -81.5t-36 -53t-48 -27t-54.5 -8.5t-55 9t-48.5 28.5t-35.5 55t-13 83.5zM289 269v55
q0 134 -96 134t-96 -135v-54h192z" />
    <glyph glyph-name="ecircumflex" unicode="&#xea;" horiz-adv-x="385" 
d="M160 702h65l100 -136h-49l-84 90l-83 -90h-49zM41 168v165q0 48 13 83.5t35.5 55t48.5 28.5t55 9t54.5 -9t48.5 -28t36 -55t13 -84v-108h-248v-44q0 -76 26 -107t70 -31q92 0 96 119h56q0 -47 -13.5 -81.5t-36 -53t-48 -27t-54.5 -8.5t-55 9t-48.5 28.5t-35.5 55
t-13 83.5zM289 269v55q0 134 -96 134t-96 -135v-54h192z" />
    <glyph glyph-name="edieresis" unicode="&#xeb;" horiz-adv-x="385" 
d="M104 639v61h60v-61h-60zM221 639v61h61v-61h-61zM41 168v165q0 48 13 83.5t35.5 55t48.5 28.5t55 9t54.5 -9t48.5 -28t36 -55t13 -84v-108h-248v-44q0 -76 26 -107t70 -31q92 0 96 119h56q0 -47 -13.5 -81.5t-36 -53t-48 -27t-54.5 -8.5t-55 9t-48.5 28.5t-35.5 55
t-13 83.5zM289 269v55q0 134 -96 134t-96 -135v-54h192z" />
    <glyph glyph-name="igrave" unicode="&#xec;" horiz-adv-x="236" 
d="M54 707h75l58 -131h-48zM102 0v500h57v-500h-57z" />
    <glyph glyph-name="iacute" unicode="&#xed;" horiz-adv-x="233" 
d="M106 706h75l-85 -130h-48zM77 0v500h57v-500h-57z" />
    <glyph glyph-name="icircumflex" unicode="&#xee;" horiz-adv-x="250" 
d="M93 702h65l100 -136h-49l-83 90l-84 -90h-49zM98 0v500h56v-500h-56z" />
    <glyph glyph-name="idieresis" unicode="&#xef;" horiz-adv-x="261" 
d="M42 639v61h61v-61h-61zM160 639v61h60v-61h-60zM104 0v500h57v-500h-57z" />
    <glyph glyph-name="eth" unicode="&#xf0;" horiz-adv-x="458" 
d="M405 656l-75 -44q16 -31 16 -76v-368q-2 -91 -45.5 -133.5t-106.5 -42.5q-29 0 -55 9t-49 28t-36 55t-13 84v165q0 48 13 84t36 55t49 28t55 9q20 0 37.5 -6.5t33 -20.5t25.5 -34v76q0 134 -96 134q-69 0 -89 -75h-56l2 9q12 61 52 89t91 28q74 0 114 -51l71 42zM290 195
v111q0 80 -26.5 116t-69.5 36q-97 0 -97 -152v-111q0 -152 97 -152q45 0 70.5 34t25.5 118z" />
    <glyph glyph-name="ntilde" unicode="&#xf1;" horiz-adv-x="398" 
d="M291 702h45q0 -124 -69 -124q-18 0 -34.5 8.5t-42.5 34.5q-18 18 -28.5 23t-22.5 4q-12 0 -19 -8t-9.5 -23t-2.5 -39h-44q0 124 69 124q20 0 35.5 -10t41.5 -34q27 -29 52 -26q17 1 23 17t6 53zM91 500l7 -65q34 74 117 74q27 0 50.5 -9t44 -28t32.5 -55t12 -84v-333h-56
v306q0 152 -97 152q-96 0 -96 -140v-318h-56v500h42z" />
    <glyph glyph-name="ograve" unicode="&#xf2;" horiz-adv-x="387" 
d="M127 707h75l59 -131h-48zM41 168v165q0 48 13 83.5t35.5 55t48.5 28.5t55 9t55 -9t49 -28t36 -55t13 -84v-165q0 -48 -13 -84t-36 -55t-49 -28t-55 -9t-55 9t-48.5 28.5t-35.5 55t-13 83.5zM290 195v111q0 152 -97 152q-21 0 -37 -7t-30 -23.5t-21.5 -47t-7.5 -74.5v-111
q0 -84 25.5 -118t70.5 -34q97 0 97 152z" />
    <glyph glyph-name="oacute" unicode="&#xf3;" horiz-adv-x="387" 
d="M186 706h75l-86 -130h-48zM41 168v165q0 48 13 83.5t35.5 55t48.5 28.5t55 9t55 -9t49 -28t36 -55t13 -84v-165q0 -48 -13 -84t-36 -55t-49 -28t-55 -9t-55 9t-48.5 28.5t-35.5 55t-13 83.5zM290 195v111q0 152 -97 152q-21 0 -37 -7t-30 -23.5t-21.5 -47t-7.5 -74.5
v-111q0 -84 25.5 -118t70.5 -34q97 0 97 152z" />
    <glyph glyph-name="ocircumflex" unicode="&#xf4;" horiz-adv-x="387" 
d="M162 702h64l101 -136h-50l-83 90l-83 -90h-50zM41 168v165q0 48 13 83.5t35.5 55t48.5 28.5t55 9t55 -9t49 -28t36 -55t13 -84v-165q0 -48 -13 -84t-36 -55t-49 -28t-55 -9t-55 9t-48.5 28.5t-35.5 55t-13 83.5zM290 195v111q0 152 -97 152q-44 0 -70 -34t-26 -118v-111
q0 -84 25.5 -118t70.5 -34q97 0 97 152z" />
    <glyph glyph-name="otilde" unicode="&#xf5;" horiz-adv-x="387" 
d="M286 702h44q0 -124 -69 -124q-12 0 -22 3.5t-23 13t-32 26.5q-17 18 -27.5 23t-23.5 4q-12 0 -18.5 -8t-9 -23t-2.5 -39h-45q0 124 69 124q20 0 35.5 -10t41.5 -34q28 -29 53 -26q17 1 23 17t6 53zM41 168v165q0 48 13 83.5t35.5 55t48.5 28.5t55 9t55 -9t49 -28t36 -55
t13 -84v-165q0 -48 -13 -84t-36 -55t-49 -28t-55 -9t-55 9t-48.5 28.5t-35.5 55t-13 83.5zM290 195v111q0 152 -97 152q-44 0 -70 -34t-26 -118v-111q0 -84 25.5 -118t70.5 -34q97 0 97 152z" />
    <glyph glyph-name="odieresis" unicode="&#xf6;" horiz-adv-x="387" 
d="M105 639v61h61v-61h-61zM223 639v61h60v-61h-60zM41 168v165q0 48 13 83.5t35.5 55t48.5 28.5t55 9t55 -9t49 -28t36 -55t13 -84v-165q0 -48 -13 -84t-36 -55t-49 -28t-55 -9t-55 9t-48.5 28.5t-35.5 55t-13 83.5zM290 195v111q0 152 -97 152q-44 0 -70 -34t-26 -118
v-111q0 -84 25.5 -118t70.5 -34q97 0 97 152z" />
    <glyph glyph-name="divide" unicode="&#xf7;" horiz-adv-x="535" 
d="M234 401v65h65v-65h-65zM50 292h435v-64h-435v64zM235 52v65h65v-65h-65z" />
    <glyph glyph-name="oslash" unicode="&#xf8;" horiz-adv-x="403" 
d="M347 550l-35 -84q44 -46 44 -133v-165q0 -48 -13.5 -84t-36 -55t-48.5 -28t-55 -9q-44 0 -77 18l-25 -60h-37l33 82q-46 46 -46 136v165q0 48 13 83.5t35.5 55t48.5 28.5t55 9q46 0 81 -20l25 61h38zM107 306v-111q0 -64 16 -101l140 342q-23 22 -60 22q-44 0 -70 -34
t-26 -118zM286 400l-139 -339q21 -18 56 -18q97 0 97 152v111q0 58 -14 94z" />
    <glyph glyph-name="ugrave" unicode="&#xf9;" 
d="M131 707h75l58 -131h-48zM294 500h56v-500h-43l-6 65q-34 -74 -118 -74q-27 0 -50.5 9t-44 28t-32 55t-11.5 84v333h56v-306q0 -152 97 -152q96 0 96 140v318z" />
    <glyph glyph-name="uacute" unicode="&#xfa;" 
d="M189 706h75l-85 -130h-48zM294 500h56v-500h-43l-6 65q-34 -74 -118 -74q-27 0 -50.5 9t-44 28t-32 55t-11.5 84v333h56v-306q0 -152 97 -152q96 0 96 140v318z" />
    <glyph glyph-name="ucircumflex" unicode="&#xfb;" 
d="M165 702h65l100 -136h-49l-83 90l-84 -90h-49zM294 500h56v-500h-43l-6 65q-34 -74 -118 -74q-27 0 -50.5 9t-44 28t-32 55t-11.5 84v333h56v-306q0 -152 97 -152q96 0 96 140v318z" />
    <glyph glyph-name="udieresis" unicode="&#xfc;" 
d="M109 639v61h61v-61h-61zM226 639v61h61v-61h-61zM294 500h56v-500h-43l-6 65q-34 -74 -118 -74q-27 0 -50.5 9t-44 28t-32 55t-11.5 84v333h56v-306q0 -152 97 -152q96 0 96 140v318z" />
    <glyph glyph-name="yacute" unicode="&#xfd;" horiz-adv-x="378" 
d="M181 706h75l-85 -130h-48zM286 500h56v-508q-2 -45 -15.5 -78t-36 -51t-47.5 -26.5t-53 -8.5q-51 0 -91.5 27t-54.5 86h59q20 -62 86 -62q97 0 97 132v57q-33 -68 -111 -68q-27 0 -50.5 9t-44 28t-32 55t-11.5 84v324h56v-297q0 -152 96 -152t97 152v297z" />
    <glyph glyph-name="thorn" unicode="&#xfe;" 
d="M104 700v-259q32 67 110 67q27 0 50.5 -9t44 -28t32.5 -54.5t12 -84.5v-165q0 -48 -12 -83.5t-32.5 -55t-44 -28.5t-50.5 -9q-78 0 -110 66v-220h-56v863h56zM297 194v111q-1 152 -97 152q-45 0 -70.5 -34t-25.5 -118v-111q0 -152 96 -152q97 0 97 152z" />
    <glyph glyph-name="ydieresis" unicode="&#xff;" horiz-adv-x="378" 
d="M101 639v61h61v-61h-61zM218 639v61h61v-61h-61zM286 500h56v-508q-2 -45 -15.5 -78t-36 -51t-47.5 -26.5t-53 -8.5q-51 0 -91.5 27t-53.5 86h58q20 -62 87 -62q96 0 96 132v57q-33 -68 -111 -68q-27 0 -50.5 9t-44 28t-32 55t-11.5 84v324h56v-297q0 -152 96 -152
t97 152v297z" />
    <glyph glyph-name="Amacron" unicode="&#x100;" horiz-adv-x="535" 
d="M126 900h285v-52h-285v52zM227 700h81l180 -700h-65l-57 213h-196l-58 -213h-65zM356 279l-88 341l-89 -341h177z" />
    <glyph glyph-name="amacron" unicode="&#x101;" horiz-adv-x="393" 
d="M55 700h285v-52h-285v52zM304 500h42v-500h-42l-6 65q-34 -73 -117 -73q-21 0 -40.5 5t-38 18t-32 32.5t-21.5 50.5t-8 70v165q0 48 12 84t33 55t44.5 28t50.5 9q83 0 117 -71zM97 306v-111q0 -152 97 -152q45 0 70.5 34t25.5 118v111q0 152 -96 152q-97 0 -97 -152z" />
    <glyph glyph-name="Abreve" unicode="&#x102;" horiz-adv-x="535" 
d="M341 900h51q-7 -45 -42 -74.5t-81.5 -29.5t-81.5 29.5t-42 74.5h51q3 -12 10 -22t16.5 -17t21.5 -11t24 -4q13 0 25 4t21.5 11t16 17t10.5 22zM227 700h81l180 -700h-65l-57 213h-196l-58 -213h-65zM356 279l-88 341l-89 -341h177z" />
    <glyph glyph-name="abreve" unicode="&#x103;" horiz-adv-x="393" 
d="M270 700h51q-7 -45 -42 -74.5t-81.5 -29.5t-81.5 29.5t-43 74.5h51q4 -12 11 -22t16.5 -17t21.5 -11t24 -4q17 0 32 7t25.5 19t15.5 28zM41 168v165q0 48 12 84t33 55t44.5 28t50.5 9q83 0 117 -71l6 62h42v-500h-42l-6 65q-34 -73 -117 -73q-21 0 -40.5 5t-38 18
t-32 32.5t-21.5 50.5t-8 70zM290 195v111q0 152 -96 152q-97 0 -97 -152v-111q0 -152 97 -152q45 0 70.5 34t25.5 118z" />
    <glyph glyph-name="Aogonek" unicode="&#x104;" horiz-adv-x="535" 
d="M227 700h81l180 -700q-18 -14 -29 -23.5t-21.5 -26.5t-10.5 -35q1 -39 49 -40h17v-44h-24q-91 3 -91 75q0 9 2 18t5 16t8 14.5t9.5 12t11 10.5t10.5 9t10.5 7.5t8.5 6.5h-20l-57 213h-196l-58 -213h-65zM356 279l-88 341l-89 -341h177z" />
    <glyph glyph-name="aogonek" unicode="&#x105;" horiz-adv-x="393" 
d="M41 168v165q0 48 12 84t33 55t44.5 28t50.5 9q83 0 117 -71l6 62h42v-500q-18 -13 -29 -23.5t-21 -27.5t-9 -34q1 -39 51 -40h14v-44h-14q-98 0 -100 71q0 8 1 15.5t3 13.5t5.5 12.5t6 11t8.5 10.5l8.5 8.5t9 8t8.5 7t8.5 6.5t7.5 5l-6 65q-34 -73 -117 -73
q-21 0 -40.5 5t-38 18t-32 32.5t-21.5 50.5t-8 70zM290 195v111q0 152 -96 152q-97 0 -97 -152v-111q0 -152 97 -152q45 0 70.5 34t25.5 118z" />
    <glyph glyph-name="Cacute" unicode="&#x106;" horiz-adv-x="497" 
d="M240 906h75l-85 -130h-48zM62 234v233q0 66 17.5 115t47.5 75.5t64.5 39t74.5 12.5q38 0 70.5 -11.5t61.5 -36t47 -70t20 -108.5v-16h-65l-1 15q-5 87 -41 125.5t-92 38.5q-29 0 -52.5 -9.5t-43 -30t-30.5 -58t-11 -90.5v-215q0 -53 11 -90.5t30.5 -58t43 -30t52.5 -9.5
q55 0 91 37.5t42 123.5l1 18h65v-15q-2 -63 -19.5 -108.5t-46.5 -70.5t-62 -36.5t-71 -11.5q-40 0 -74.5 12.5t-64.5 39t-47.5 75.5t-17.5 115z" />
    <glyph glyph-name="cacute" unicode="&#x107;" horiz-adv-x="384" 
d="M184 706h75l-85 -130h-48zM41 168v165q0 48 13 83.5t35.5 55t48.5 28.5t55 9t54 -8.5t47.5 -26.5t36 -52t14.5 -80v-18h-55q-3 134 -97 134q-44 0 -70 -34t-26 -118v-111q0 -84 25.5 -118t70.5 -34q95 0 97 134h55v-17q-1 -46 -14.5 -80t-36 -52.5t-47.5 -27t-54 -8.5
t-55 9t-48.5 28.5t-35.5 55t-13 83.5z" />
    <glyph glyph-name="Cdotaccent" unicode="&#x10a;" horiz-adv-x="497" 
d="M218 900h61v-61h-61v61zM62 234v233q0 66 17.5 115t47.5 75.5t64.5 39t74.5 12.5q38 0 70.5 -11.5t61.5 -36t47 -70t20 -108.5v-16h-65l-1 15q-5 87 -41 125.5t-92 38.5q-29 0 -52.5 -9.5t-43 -30t-30.5 -58t-11 -90.5v-215q0 -53 11 -90.5t30.5 -58t43 -30t52.5 -9.5
q55 0 91 37.5t42 123.5l1 18h65v-15q-2 -63 -19.5 -108.5t-46.5 -70.5t-62 -36.5t-71 -11.5q-40 0 -74.5 12.5t-64.5 39t-47.5 75.5t-17.5 115z" />
    <glyph glyph-name="cdotaccent" unicode="&#x10b;" horiz-adv-x="384" 
d="M162 700h61v-61h-61v61zM41 168v165q0 48 13 83.5t35.5 55t48.5 28.5t55 9t54 -8.5t47.5 -26.5t36 -52t14.5 -80v-18h-55q-3 134 -97 134q-21 0 -37.5 -7t-30 -23.5t-21 -47t-7.5 -74.5v-111q0 -84 25.5 -118t70.5 -34q95 0 97 134h55v-17q-1 -46 -14.5 -80t-36 -52.5
t-47.5 -27t-54 -8.5t-55 9t-48.5 28.5t-35.5 55t-13 83.5z" />
    <glyph glyph-name="Ccaron" unicode="&#x10c;" horiz-adv-x="497" 
d="M332 902h49l-100 -136h-65l-100 136h49l83 -91zM62 234v233q0 66 17.5 115t47.5 75.5t64.5 39t74.5 12.5q38 0 70.5 -11.5t61.5 -36t47 -70t20 -108.5v-16h-65l-1 15q-5 87 -41 125.5t-92 38.5q-23 0 -42.5 -5.5t-37 -19t-30 -34.5t-20 -53.5t-7.5 -75.5v-215
q0 -53 11 -90.5t30.5 -58t43 -30t52.5 -9.5q55 0 91 37.5t42 123.5l1 18h65v-15q-2 -63 -19.5 -108.5t-46.5 -70.5t-62 -36.5t-71 -11.5q-40 0 -74.5 12.5t-64.5 39t-47.5 75t-17.5 115.5z" />
    <glyph glyph-name="ccaron" unicode="&#x10d;" horiz-adv-x="384" 
d="M276 702h49l-100 -136h-65l-100 136h49l83 -91zM41 168v165q0 48 13 83.5t35.5 55t48.5 28.5t55 9t54 -8.5t47.5 -26.5t36 -52t14.5 -80v-18h-55q-3 134 -97 134q-21 0 -37.5 -7t-30 -23.5t-21 -47t-7.5 -74.5v-111q0 -84 25.5 -118t70.5 -34q95 0 97 134h55v-17
q-1 -46 -14.5 -80t-36 -52.5t-47.5 -27t-54 -8.5t-55 9t-48.5 28.5t-35.5 55t-13 83.5z" />
    <glyph glyph-name="Dcaron" unicode="&#x10e;" horiz-adv-x="505" 
d="M285 766h-64l-101 136h50l83 -91l83 91h50zM63 700h180q39 0 73 -12t64.5 -38t48 -75t17.5 -117v-216q0 -68 -17.5 -117t-48 -75t-64.5 -38t-73 -12h-180v700zM381 251v198q0 101 -39 144.5t-99 43.5h-115v-574h115q60 0 99 43.5t39 144.5z" />
    <glyph glyph-name="dcaron" unicode="&#x10f;" horiz-adv-x="507" 
d="M290 443v257h56v-700h-42l-6 66q-35 -74 -118 -74q-27 0 -50.5 9t-44 28t-32.5 55t-12 84v165q0 33 5.5 60t15.5 45.5t23 32.5t29 22t32 12t34 4q77 0 110 -66zM396 700h65v-65l-26 -62h-23l11 62h-27v65zM97 306v-111q0 -152 97 -152q45 0 70.5 34t25.5 118v111
q0 152 -96 152q-97 0 -97 -152z" />
    <glyph glyph-name="Dcroat" unicode="&#x110;" horiz-adv-x="505" 
d="M73 700h180q39 0 73 -12t64.5 -38t48 -75t17.5 -117v-216q0 -68 -17.5 -117t-48 -75t-64.5 -38t-73 -12h-180v321h-66v52h66v327zM391 251v198q0 53 -11.5 90.5t-31.5 58t-43.5 30t-51.5 9.5h-115v-264h107v-52h-107v-258h115q60 0 99 43.5t39 144.5z" />
    <glyph glyph-name="dcroat" unicode="&#x111;" horiz-adv-x="406" 
d="M424 631v-50h-78v-581h-42l-6 66q-35 -74 -118 -74q-27 0 -50.5 9t-44 28t-32.5 55t-12 84v165q0 33 5.5 60t15.5 45.5t23 32.5t29 22t32 12t34 4q77 0 110 -66v138h-92v50h92v69h56v-69h78zM97 306v-111q0 -152 97 -152q45 0 70.5 34t25.5 118v111q0 152 -96 152
q-97 0 -97 -152z" />
    <glyph glyph-name="Emacron" unicode="&#x112;" horiz-adv-x="398" 
d="M57 900h285v-52h-285v52zM63 700h303v-63h-238v-246h228v-63h-228v-265h238v-63h-303v700z" />
    <glyph glyph-name="emacron" unicode="&#x113;" horiz-adv-x="385" 
d="M50 700h285v-52h-285v52zM41 168v165q0 48 13 83.5t35.5 55t48.5 28.5t55 9t54.5 -9t48.5 -28t36 -55t13 -84v-108h-248v-44q0 -76 26 -107t70 -31q92 0 96 119h56q0 -47 -13.5 -81.5t-36 -53t-48 -27t-54.5 -8.5t-55 9t-48.5 28.5t-35.5 55t-13 83.5zM289 269v55
q0 134 -96 134t-96 -135v-54h192z" />
    <glyph glyph-name="Edotaccent" unicode="&#x116;" horiz-adv-x="398" 
d="M169 900h61v-61h-61v61zM63 700h303v-63h-238v-246h228v-63h-228v-265h238v-63h-303v700z" />
    <glyph glyph-name="edotaccent" unicode="&#x117;" horiz-adv-x="385" 
d="M162 639v61h61v-61h-61zM41 168v165q0 48 13 83.5t35.5 55t48.5 28.5t55 9t54.5 -9t48.5 -28t36 -55t13 -84v-108h-248v-44q0 -76 26 -107t70 -31q92 0 96 119h56q0 -47 -13.5 -81.5t-36 -53t-48 -27t-54.5 -8.5t-55 9t-48.5 28.5t-35.5 55t-13 83.5zM289 269v55
q0 134 -96 134t-96 -135v-54h192z" />
    <glyph glyph-name="Eogonek" unicode="&#x118;" horiz-adv-x="398" 
d="M63 700h303v-63h-238v-246h228v-63h-228v-265h238v-63h-36q-18 -13 -28.5 -23t-20.5 -26.5t-9 -32.5q1 -40 50 -41h15v-44h-16q-95 1 -98 70q-1 18 4.5 33.5t17.5 28.5t19 19t20 16h-221v700z" />
    <glyph glyph-name="eogonek" unicode="&#x119;" horiz-adv-x="385" 
d="M41 168v165q0 48 13 83.5t35.5 55t48.5 28.5t55 9t54.5 -9t48.5 -28t36 -55t13 -84v-108h-248v-44q0 -138 96 -138q91 0 96 119h56q-2 -115 -78 -152l-7 -3q-18 -13 -28.5 -22t-21 -25.5t-9.5 -33.5q1 -39 50 -40h15v-44h-16q-95 0 -98 70q0 19 8.5 36t17.5 25.5t24 19.5
q-8 -1 -20 0q-60 3 -100.5 45t-40.5 130zM289 269v55q0 134 -96 134t-96 -135v-54h192z" />
    <glyph glyph-name="Ecaron" unicode="&#x11a;" horiz-adv-x="398" 
d="M283 902h49l-100 -136h-65l-100 136h49l83 -91zM63 700h303v-63h-238v-246h228v-63h-228v-265h238v-63h-303v700z" />
    <glyph glyph-name="ecaron" unicode="&#x11b;" horiz-adv-x="385" 
d="M276 702h49l-100 -136h-65l-100 136h49l83 -91zM41 168v165q0 48 13 83.5t35.5 55t48.5 28.5t55 9t54.5 -9t48.5 -28t36 -55t13 -84v-108h-248v-44q0 -76 26 -107t70 -31q92 0 96 119h56q0 -47 -13.5 -81.5t-36 -53t-48 -27t-54.5 -8.5t-55 9t-48.5 28.5t-35.5 55
t-13 83.5zM289 269v55q0 134 -96 134t-96 -135v-54h192z" />
    <glyph glyph-name="Gbreve" unicode="&#x11e;" horiz-adv-x="527" 
d="M336 900h51q-7 -45 -42 -74.5t-81.5 -29.5t-81.5 29.5t-42 74.5h51q3 -12 10 -22t16.5 -17t21.5 -11t24 -4q18 0 33 7t25.5 19t14.5 28zM62 234v233q0 67 17.5 115.5t47 75t64 39t73.5 12.5q31 0 58.5 -7t54 -24t45.5 -43t31 -67.5t13 -93.5v-10h-64v7q-3 93 -41 134
t-97 41q-28 0 -51.5 -9.5t-43 -30t-30.5 -58t-11 -90.5v-215q0 -53 11 -90.5t30.5 -58t43 -30t51.5 -9.5q61 0 99.5 43t38.5 143v70h-130v63h194v-140q0 -67 -17 -116t-47 -75.5t-64 -38.5t-74 -12q-39 0 -73.5 12.5t-64 39t-47 75t-17.5 115.5z" />
    <glyph glyph-name="gbreve" unicode="&#x11f;" 
d="M270 700h51q-7 -45 -42 -74.5t-81.5 -29.5t-81.5 29.5t-43 74.5h51q4 -12 11 -22t16.5 -17t21.5 -11t24 -4q17 0 32 7t25.5 19t15.5 28zM41 176v157q0 33 5.5 60t15.5 45.5t23 32.5t29 22t32 12t34 4q83 0 118 -72l6 63h42v-499q0 -47 -13 -82t-35.5 -54t-48.5 -28
t-55 -9q-51 0 -91.5 27t-53.5 86h58q21 -62 87 -62q96 0 96 132v57q-32 -68 -110 -68q-22 0 -41 5t-37.5 18t-31.5 32.5t-21 50.5t-8 70zM290 201v105q0 44 -7.5 74.5t-21 47t-30 23.5t-37.5 7q-97 0 -97 -152v-105q0 -152 97 -152q14 0 25.5 3t23 9.5t19.5 18t14.5 28
t10 40t3.5 53.5z" />
    <glyph glyph-name="Gdotaccent" unicode="&#x120;" horiz-adv-x="527" 
d="M233 839v61h61v-61h-61zM62 234v233q0 67 17.5 115.5t47 75t64 39t73.5 12.5q31 0 58.5 -7t54 -24t45.5 -43t31 -67.5t13 -93.5v-10h-64v7q-3 93 -41 134t-97 41q-22 0 -41.5 -5.5t-37.5 -19t-30.5 -34.5t-19.5 -53.5t-7 -75.5v-215q0 -53 11 -90.5t30.5 -58t43 -30
t51.5 -9.5q61 0 99.5 43t38.5 143v70h-130v63h194v-140q0 -67 -17 -116t-47 -75.5t-64 -38.5t-74 -12q-39 0 -73.5 12.5t-64 39t-47 75t-17.5 115.5z" />
    <glyph glyph-name="gdotaccent" unicode="&#x121;" 
d="M167 700h61v-61h-61v61zM41 176v157q0 33 5.5 60t15.5 45.5t23 32.5t29 22t32 12t34 4q83 0 118 -72l6 63h42v-499q0 -47 -13 -82t-35.5 -54t-48.5 -28t-55 -9q-51 0 -91.5 27t-53.5 86h58q21 -62 87 -62q96 0 96 131v58q-32 -68 -110 -68q-22 0 -41 5t-37.5 18
t-31.5 32.5t-21 50.5t-8 70zM290 201v105q0 84 -26 118t-70 34q-97 0 -97 -152v-105q0 -152 97 -152q45 0 70.5 34t25.5 118z" />
    <glyph glyph-name="Gcommaaccent" unicode="&#x122;" horiz-adv-x="527" 
d="M62 234v233q0 67 17.5 115.5t47 75t64 39t73.5 12.5q31 0 58.5 -7t54 -24t45.5 -43t31 -67.5t13 -93.5v-10h-64v7q-3 93 -41 134t-97 41q-28 0 -51.5 -9.5t-43 -30t-30.5 -58t-11 -90.5v-215q0 -53 11 -90.5t30.5 -58t43 -30t51.5 -9.5q61 0 99.5 43t38.5 143v70h-130v63
h194v-140q0 -67 -17 -116t-47 -75.5t-64 -38.5t-74 -12q-39 0 -73.5 12.5t-64 39t-47 75t-17.5 115.5zM231 -85h65v-65l-26 -62h-23l11 62h-27v65z" />
    <glyph glyph-name="gcommaaccent" unicode="&#x123;" horiz-adv-x="393" 
d="M188 754h21l-10 -59h25v-60h-61v60zM41 176v157q0 33 5.5 60t15.5 45.5t23 32.5t29 22t32 12t34 4q83 0 118 -72l6 63h42v-499q0 -47 -13 -82t-35.5 -54t-48.5 -28t-55 -9q-51 0 -91.5 27t-53.5 86h58q21 -62 87 -62q96 0 96 132v57q-32 -68 -110 -68q-22 0 -41 5
t-37.5 18t-31.5 32.5t-21 50.5t-8 70zM290 201v105q0 84 -26 118t-70 34q-97 0 -97 -152v-105q0 -152 97 -152q14 0 25.5 3t23 9.5t19.5 18t14.5 28t10 40t3.5 53.5z" />
    <glyph glyph-name="Hbar" unicode="&#x126;" horiz-adv-x="624" 
d="M591 564v-58h-93v-506h-65v328h-243v-328h-65v506h-93v58h93v136h65v-136h243v136h65v-136h93zM433 391v115h-243v-115h243z" />
    <glyph glyph-name="hbar" unicode="&#x127;" horiz-adv-x="428" 
d="M134 579v-139q33 69 111 69q27 0 50.5 -9t44 -28t32 -55t11.5 -84v-333h-56v306q0 152 -96 152q-97 0 -97 -140v-318h-56v578h-101v51h101v71h56v-70h102v-51h-102z" />
    <glyph glyph-name="Imacron" unicode="&#x12a;" horiz-adv-x="193" 
d="M-46 900h285v-52h-285v52zM63 0v700h67v-700h-67z" />
    <glyph glyph-name="imacron" unicode="&#x12b;" horiz-adv-x="244" 
d="M-20 700h285v-52h-285v52zM95 0v500h56v-500h-56z" />
    <glyph glyph-name="Iogonek" unicode="&#x12e;" horiz-adv-x="193" 
d="M63 700h67v-700q-19 -14 -30 -23.5t-21.5 -26.5t-10.5 -35q1 -39 51 -40h15v-44h-16q-48 0 -73 18t-25 53q-1 10 1 19.5t4.5 16.5t8.5 14.5t9.5 12t11 11.5t10.5 9t11.5 8t8.5 7h-22v700z" />
    <glyph glyph-name="iogonek" unicode="&#x12f;" horiz-adv-x="214" 
d="M75 639v61h61v-61h-61zM133 500v-500q-19 -14 -29.5 -23t-21.5 -26t-11 -34q1 -41 51 -42h15v-44h-16q-97 1 -98 73q-1 11 1.5 21t7.5 18.5t9.5 15t12.5 13.5t12.5 10.5t12.5 10t10 7.5h-12v500h56z" />
    <glyph glyph-name="Idotaccent" unicode="&#x130;" horiz-adv-x="193" 
d="M66 839v61h61v-61h-61zM63 0v700h67v-700h-67z" />
    <glyph glyph-name="dotlessi" unicode="&#x131;" horiz-adv-x="211" 
d="M77 0v500h57v-500h-57z" />
    <glyph glyph-name="IJ" unicode="&#x132;" horiz-adv-x="521" 
d="M63 700h67v-700h-67v700zM393 700h65v-466q0 -51 -11 -92.5t-29 -68.5t-42.5 -45t-50 -26.5t-54.5 -9.5h-31v63h19q57 3 95.5 47t38.5 141v457z" />
    <glyph glyph-name="ij" unicode="&#x133;" horiz-adv-x="428" 
d="M51 646h65v-61h-65v61zM316 645h63v-59h-63v59zM56 500h56v-500h-56v500zM319 500h57v-497q0 -53 -9 -88t-27.5 -53.5t-41 -26t-55.5 -8.5h-30v51h12q37 1 56 10.5t28.5 40t9.5 91.5v480z" />
    <glyph glyph-name="Kcommaaccent" unicode="&#x136;" horiz-adv-x="507" 
d="M188 358l272 -358h-79l-251 326v-326h-67v700h67v-306l231 306h77zM222 -150v65h65v-65l-26 -62h-23l11 62h-27z" />
    <glyph glyph-name="kcommaaccent" unicode="&#x137;" horiz-adv-x="370" 
d="M153 256l181 -256h-61l-169 226v-226h-56v700h56v-414l160 214h60zM153 -150v65h65v-65l-26 -62h-23l11 62h-27z" />
    <glyph glyph-name="Lacute" unicode="&#x139;" horiz-adv-x="406" 
d="M195 906h75l-85 -130h-48zM63 700h65v-637h231v-63h-296v700z" />
    <glyph glyph-name="lacute" unicode="&#x13a;" horiz-adv-x="174" 
d="M81 881h75l-85 -131h-49zM51 0v700h56v-700h-56z" />
    <glyph glyph-name="Lcommaaccent" unicode="&#x13b;" horiz-adv-x="406" 
d="M128 63h231v-63h-296v700h65v-637zM171 -150v65h65v-65l-26 -62h-23l11 62h-27z" />
    <glyph glyph-name="lcommaaccent" unicode="&#x13c;" horiz-adv-x="152" 
d="M107 700v-700h-56v700h56zM44 -85h65v-65l-26 -62h-23l11 62h-27v65z" />
    <glyph glyph-name="Lcaron" unicode="&#x13d;" horiz-adv-x="444" 
d="M296 573l12 62h-28v65h65v-65l-26 -62h-23zM128 63h231v-63h-296v700h65v-637z" />
    <glyph glyph-name="lcaron" unicode="&#x13e;" horiz-adv-x="232" 
d="M161 700h65v-65l-26 -62h-23l11 62h-27v65zM51 0v700h56v-700h-56z" />
    <glyph glyph-name="Ldot" unicode="&#x13f;" horiz-adv-x="437" 
d="M128 63h231v-63h-296v700h65v-637zM304 317v25h26v-25h-26z" />
    <glyph glyph-name="ldot" unicode="&#x140;" horiz-adv-x="274" 
d="M51 0v700h56v-700h-56zM185 297v65h65v-65h-65z" />
    <glyph glyph-name="Lslash" unicode="&#x141;" horiz-adv-x="475" 
d="M178 63h250v-63h-315v350l-99 -61v67l99 61v283h65v-262l100 62v-67l-100 -62v-308z" />
    <glyph glyph-name="lslash" unicode="&#x142;" horiz-adv-x="298" 
d="M281 500v-67l-104 -62v-371h-57v351l-103 -62v67l103 62v282h57v-263z" />
    <glyph glyph-name="Nacute" unicode="&#x143;" horiz-adv-x="509" 
d="M246 906h76l-86 -130h-48zM385 700h64v-700h-65l-260 553v-553h-64v700h65l260 -553v553z" />
    <glyph glyph-name="nacute" unicode="&#x144;" horiz-adv-x="398" 
d="M191 706h75l-85 -130h-49zM91 500l7 -65q34 74 117 74q27 0 50.5 -9t44 -28t32.5 -55t12 -84v-333h-56v306q0 152 -97 152q-96 0 -96 -140v-318h-56v500h42z" />
    <glyph glyph-name="Ncommaaccent" unicode="&#x145;" horiz-adv-x="509" 
d="M385 700h64v-700h-65l-260 553v-553h-64v700h65l260 -553v553zM223 -150v65h65v-65l-26 -62h-23l11 62h-27z" />
    <glyph glyph-name="ncommaaccent" unicode="&#x146;" horiz-adv-x="398" 
d="M91 500l7 -65q34 74 117 74q27 0 50.5 -9t44 -28t32.5 -55t12 -84v-333h-56v306q0 152 -97 152q-96 0 -96 -140v-318h-56v500h42zM167 -150v65h65v-65l-26 -62h-23l11 62h-27z" />
    <glyph glyph-name="Ncaron" unicode="&#x147;" horiz-adv-x="509" 
d="M338 902h50l-101 -136h-64l-101 136h50l83 -91zM385 700h64v-700h-65l-260 553v-553h-64v700h65l260 -553v553z" />
    <glyph glyph-name="ncaron" unicode="&#x148;" horiz-adv-x="398" 
d="M283 702h49l-100 -136h-65l-100 136h49l83 -91zM91 500l7 -65q34 74 117 74q27 0 50.5 -9t44 -28t32.5 -55t12 -84v-333h-56v306q0 152 -97 152q-96 0 -96 -140v-318h-56v500h42z" />
    <glyph glyph-name="Eng" unicode="&#x14a;" horiz-adv-x="600" 
d="M444 700h65v-687q0 -56 -10 -93t-30.5 -57t-45 -27.5t-61.5 -8.5h-27v62h17q34 0 51 7.5t28 32.5t12 76l-257 559v-564h-65v700h64l259 -563v563z" />
    <glyph glyph-name="eng" unicode="&#x14b;" horiz-adv-x="402" 
d="M93 500l6 -65q34 74 118 74q27 0 50.5 -9t44 -28t32 -55t11.5 -84v-330q0 -54 -9 -89.5t-28 -53.5t-42 -25t-58 -8h-25v51h9q29 0 45 4.5t29 18.5t18 40.5t5 71.5v301q0 144 -97 144q-96 0 -96 -140v-318h-56v500h43z" />
    <glyph glyph-name="Omacron" unicode="&#x14c;" horiz-adv-x="518" 
d="M118 900h284v-52h-284v52zM55 234v233q0 66 17.5 115t47.5 75.5t64.5 39t74.5 12.5q39 0 73.5 -12t65 -38.5t48 -75.5t17.5 -116v-233q0 -67 -17.5 -116t-48 -75.5t-65 -38.5t-73.5 -12q-40 0 -74.5 12.5t-64.5 39t-47.5 75.5t-17.5 115zM396 243v215q0 53 -11 90.5
t-31 58t-43.5 30t-51.5 9.5q-29 0 -52.5 -9.5t-43 -30t-30.5 -58t-11 -90.5v-215q0 -53 11 -90.5t30.5 -58t43 -30t52.5 -9.5q60 0 98.5 43.5t38.5 144.5z" />
    <glyph glyph-name="omacron" unicode="&#x14d;" horiz-adv-x="387" 
d="M52 700h285v-52h-285v52zM41 168v165q0 48 13 83.5t35.5 55t48.5 28.5t55 9t55 -9t49 -28t36 -55t13 -84v-165q0 -48 -13 -84t-36 -55t-49 -28t-55 -9t-55 9t-48.5 28.5t-35.5 55t-13 83.5zM290 195v111q0 152 -97 152q-21 0 -37 -7t-30 -23.5t-21.5 -47t-7.5 -74.5v-111
q0 -84 25.5 -118t70.5 -34q97 0 97 152z" />
    <glyph glyph-name="Ohungarumlaut" unicode="&#x150;" horiz-adv-x="518" 
d="M195 906h72l-86 -130h-44zM312 906h71l-85 -130h-45zM55 234v233q0 66 17.5 115t47.5 75.5t64.5 39t74.5 12.5q39 0 73.5 -12t65 -38.5t48 -75.5t17.5 -116v-233q0 -67 -17.5 -116t-48 -75.5t-65 -38.5t-73.5 -12q-40 0 -74.5 12.5t-64.5 39t-47.5 75.5t-17.5 115z
M396 243v215q0 53 -11 90.5t-31 58t-43.5 30t-51.5 9.5q-29 0 -52.5 -9.5t-43 -30t-30.5 -58t-11 -90.5v-215q0 -53 11 -90.5t30.5 -58t43 -30t52.5 -9.5q60 0 98.5 43.5t38.5 144.5z" />
    <glyph glyph-name="ohungarumlaut" unicode="&#x151;" horiz-adv-x="402" 
d="M140 706h72l-86 -130h-44zM257 706h71l-86 -130h-44zM41 168v165q0 48 13 83.5t35.5 55t48.5 28.5t55 9t55 -9t49 -28t36 -55t13 -84v-165q0 -48 -13 -84t-36 -55t-49 -28t-55 -9t-55 9t-48.5 28.5t-35.5 55t-13 83.5zM290 195v111q0 152 -97 152q-44 0 -70 -34t-26 -118
v-111q0 -84 25.5 -118t70.5 -34q97 0 97 152z" />
    <glyph glyph-name="OE" unicode="&#x152;" horiz-adv-x="776" 
d="M41 234v233q0 67 17.5 115.5t47.5 75t64 39t74 12.5q50 0 91 -21.5t64 -68.5v81h303v-63h-238v-246h228v-63h-228v-265h238v-63h-303v82q-23 -47 -64 -68.5t-91 -21.5q-31 0 -59 7t-55 25t-46.5 45t-31 69t-11.5 96zM382 243v215q0 53 -11 90.5t-31 58t-43.5 30
t-52.5 9.5q-61 0 -98.5 -43.5t-37.5 -144.5v-215q0 -52 10.5 -90t30.5 -58.5t43.5 -30t51.5 -9.5q61 0 99.5 43.5t38.5 144.5z" />
    <glyph glyph-name="oe" unicode="&#x153;" horiz-adv-x="716" 
d="M79 168v165q0 48 12 83.5t32.5 55t44 28.5t50.5 9q97 0 128 -88q18 46 54 67t80 21q29 0 54.5 -9t48.5 -28t36 -55t13 -84v-108h-248v-45q0 -137 96 -137q92 0 96 119h56q0 -47 -13.5 -81.5t-36 -53t-48 -27t-54.5 -8.5q-44 0 -80 21t-54 67q-30 -88 -128 -88
q-27 0 -50.5 9t-44 28.5t-32.5 55t-12 83.5zM328 195v111q0 152 -97 152q-44 0 -70 -34t-26 -118v-111q0 -84 25.5 -118t70.5 -34q97 0 97 152zM576 276v55q-1 127 -96 127t-96 -127v-55h192z" />
    <glyph glyph-name="Racute" unicode="&#x154;" horiz-adv-x="490" 
d="M237 906h76l-86 -130h-48zM63 700h162q40 0 75.5 -9.5t67 -29t49.5 -56t18 -86.5v-29q0 -66 -35 -105.5t-90 -54.5l133 -330h-69l-127 301l-119 3v-304h-65v700zM371 500v9q0 37 -11.5 63t-32 39.5t-43.5 19.5t-51 6h-105v-265h105q27 0 50.5 6t44 20t32 40t11.5 62z" />
    <glyph glyph-name="racute" unicode="&#x155;" horiz-adv-x="264" 
d="M124 706h75l-85 -130h-48zM91 500l8 -78q13 28 33.5 48t44.5 29.5t51 9.5v-51q-55 0 -89 -39.5t-34 -119.5v-299h-56v500h42z" />
    <glyph glyph-name="Rcommaaccent" unicode="&#x156;" horiz-adv-x="490" 
d="M63 700h162q40 0 75.5 -9.5t67 -29t49.5 -56t18 -86.5v-29q0 -66 -35 -105.5t-90 -54.5l133 -330h-69l-127 301l-119 3v-304h-65v700zM371 500v9q0 37 -11.5 63t-32 39.5t-43.5 19.5t-51 6h-105v-265h105q27 0 50.5 6t44 20t32 40t11.5 62zM214 -85h64v-65l-26 -62h-23
l12 62h-27v65z" />
    <glyph glyph-name="rcommaaccent" unicode="&#x157;" horiz-adv-x="264" 
d="M91 500l8 -78q13 28 33.5 48t44.5 29.5t51 9.5v-51q-55 0 -89 -39.5t-34 -119.5v-299h-56v500h42zM101 -150v65h65v-65l-26 -62h-23l12 62h-28z" />
    <glyph glyph-name="Rcaron" unicode="&#x158;" horiz-adv-x="490" 
d="M329 902h49l-100 -136h-65l-100 136h49l84 -91zM63 700h162q40 0 75.5 -9.5t67 -29t49.5 -56t18 -86.5v-29q0 -66 -35 -105.5t-90 -54.5l133 -330h-69l-127 301l-119 3v-304h-65v700zM371 500v9q0 37 -11.5 63t-32 39.5t-43.5 19.5t-51 6h-105v-265h105q27 0 50.5 6
t44 20t32 40t11.5 62z" />
    <glyph glyph-name="rcaron" unicode="&#x159;" horiz-adv-x="264" 
d="M216 702h49l-100 -136h-65l-100 136h49l84 -91zM91 500l8 -78q20 42 54 64.5t75 22.5v-51q-55 0 -89 -39.5t-34 -119.5v-299h-56v500h42z" />
    <glyph glyph-name="Sacute" unicode="&#x15a;" horiz-adv-x="500" 
d="M241 906h76l-86 -130h-48zM46 210h63q0 -33 8.5 -60t22.5 -44.5t32.5 -29t37.5 -16.5t39 -5q42 0 73 14t49 44t18 75q0 34 -10 58.5t-31 41t-44.5 27t-58.5 20.5q-22 6 -32 9.5t-32.5 12t-35 17t-30.5 23.5t-27 31.5t-16 41t-7 52.5q0 51 16 88.5t44 58t60.5 30.5
t69.5 10q36 0 68.5 -11.5t61 -36t45 -69t16.5 -102.5h-63q0 77 -37.5 116.5t-90.5 39.5t-89 -30.5t-36 -89.5q0 -17 3.5 -31.5t10.5 -25.5t14 -19.5t18 -16t19 -12t21 -9t20 -6.5t19.5 -5.5t16.5 -4.5q95 -26 138.5 -74.5t43.5 -127.5q0 -55 -16 -95.5t-45.5 -63t-64.5 -33
t-79 -10.5q-37 0 -71.5 11.5t-64.5 36t-48.5 68.5t-18.5 102z" />
    <glyph glyph-name="sacute" unicode="&#x15b;" horiz-adv-x="376" 
d="M180 706h75l-85 -130h-49zM91 149v-9q2 -51 30 -74t67 -23q97 0 97 92q0 44 -25 68.5t-75 39.5q-27 6 -47 14.5t-42.5 23.5t-34.5 39.5t-12 57.5q0 67 40.5 99t102.5 32q57 0 99.5 -37t44.5 -108v-10h-56v11q-3 48 -27.5 70.5t-60.5 22.5q-87 0 -87 -77q0 -21 8.5 -37
t25 -26t27.5 -14t29 -10q4 -1 6 -2q76 -20 108.5 -58.5t32.5 -96.5q0 -50 -21.5 -83.5t-55 -47.5t-77.5 -14q-59 0 -105 37t-48 109v11h56z" />
    <glyph glyph-name="Scedilla" unicode="&#x15e;" horiz-adv-x="500" 
d="M46 210h63q0 -41 12.5 -72.5t33.5 -48.5t44.5 -25.5t49.5 -8.5q42 0 73 14t49 44t18 75q0 34 -10 58.5t-31 41t-44.5 27t-58.5 20.5q-22 6 -32 9.5t-32.5 12t-35 17t-30.5 23.5t-27 31.5t-16 41t-7 52.5q0 51 16 88.5t44 58t60.5 30.5t69.5 10q36 0 68.5 -11.5t61 -36
t45 -69t16.5 -102.5h-63q0 77 -37.5 116.5t-90.5 39.5t-89 -30.5t-36 -89.5q0 -17 3.5 -31.5t10.5 -25.5t14 -19.5t18 -16t19 -12t21 -9t20 -6.5t19.5 -5.5t16.5 -4.5q95 -26 138.5 -74.5t43.5 -127.5q0 -44 -10.5 -78.5t-29.5 -57.5t-44 -37.5t-56 -21.5v-53
q-1 -61 -23.5 -88t-78.5 -27h-25v44h25q29 1 41 17.5t13 53.5v48q-21 -1 -32 -1q-35 2 -66.5 15t-59.5 37.5t-45 67t-17 97.5z" />
    <glyph glyph-name="scedilla" unicode="&#x15f;" horiz-adv-x="376" 
d="M91 149v-10q2 -51 30 -73.5t67 -22.5q97 0 97 92q0 44 -25 68.5t-75 39.5q-17 4 -30.5 8.5t-30.5 12t-29.5 18t-23.5 23.5t-16.5 32t-5.5 41q0 67 40.5 99t102.5 32q57 0 99 -36.5t45 -106.5v-12h-56v12q-2 48 -27.5 70t-60.5 22q-87 0 -87 -77q0 -21 8.5 -37t25 -26
t27.5 -14.5t29 -9.5q4 -1 6 -2q76 -20 108.5 -58.5t32.5 -96.5q0 -105 -90 -135v-55q0 -61 -22.5 -88.5t-79.5 -27.5h-25v44h24q31 1 43 17.5t12 53.5v49q-15 -1 -32 0q-54 4 -94.5 40t-42.5 103v11h56z" />
    <glyph glyph-name="Scaron" unicode="&#x160;" horiz-adv-x="500" 
d="M333 902h50l-101 -136h-64l-101 136h50l83 -91zM46 210h63q0 -41 12.5 -72.5t33.5 -48.5t44.5 -25.5t49.5 -8.5q42 0 73 14t49 44t18 75q0 34 -10.5 58.5t-31 41t-44 27t-58.5 20.5q-22 6 -32 9.5t-32.5 12t-35.5 17t-30.5 23.5t-26.5 31.5t-16 41t-7 52.5q0 51 16 88.5
t44 58t60.5 30.5t69.5 10q36 0 68.5 -11.5t61 -36t45 -69t16.5 -102.5h-63q0 77 -37.5 116.5t-90.5 39.5t-89 -30.5t-36 -89.5q0 -19 5 -35t11.5 -27t18.5 -21t20 -15.5t23.5 -12t22.5 -8.5t23 -6t18 -5q95 -26 138.5 -74.5t43.5 -127.5q0 -55 -16 -95.5t-45.5 -63
t-64.5 -33t-79 -10.5q-37 0 -71.5 11.5t-64.5 36t-48.5 68.5t-18.5 102z" />
    <glyph glyph-name="scaron" unicode="&#x161;" horiz-adv-x="376" 
d="M272 702h49l-100 -136h-65l-100 136h49l83 -91zM91 149v-9q2 -51 30 -74t67 -23q97 0 97 92q0 44 -25 68.5t-75 39.5q-21 5 -37 10.5t-36 16.5t-33 24.5t-21.5 35.5t-8.5 48q0 67 40.5 99t102.5 32q57 0 99.5 -37t44.5 -108v-10h-56v11q-3 48 -27.5 70.5t-60.5 22.5
q-87 0 -87 -77q0 -21 8.5 -37t25 -26t27.5 -14.5t29 -9.5q4 -1 6 -2q76 -20 108.5 -58.5t32.5 -96.5q0 -73 -43 -109t-111 -36q-59 0 -105 37t-48 109v11h56z" />
    <glyph glyph-name="Tcedilla" unicode="&#x162;" horiz-adv-x="452" 
d="M47 700h358v-63h-146v-687q0 -42 -9.5 -67.5t-32 -38.5t-61.5 -13h-25v44h24q31 0 43 17t13 56v52h-17v637h-147v63z" />
    <glyph glyph-name="tcedilla" unicode="&#x163;" horiz-adv-x="313" 
d="M113 653h57v-153h106v-50h-106v-260q0 -50 4.5 -79t17 -44.5t28 -20t44.5 -4.5h12v-51h-10q-24 0 -44 3v-45q-1 -56 -24 -81t-78 -26h-25v44h25q30 1 42 18t12 55v47q-31 15 -46 53.5t-15 114.5v276h-76v50h76v153z" />
    <glyph glyph-name="Tcaron" unicode="&#x164;" horiz-adv-x="452" 
d="M309 902h50l-101 -136h-64l-101 136h50l83 -91zM405 700v-63h-146v-637h-66v637h-146v63h358z" />
    <glyph glyph-name="tcaron" unicode="&#x165;" horiz-adv-x="359" 
d="M223 705h61v-61l-25 -58h-21l10 58h-25v61zM113 653h57v-153h106v-50h-106v-260q0 -65 9.5 -97t27.5 -41t54 -10h15v-51h-27q-34 0 -56.5 7t-42 25.5t-28.5 55.5t-9 95v276h-76v50h76v153z" />
    <glyph glyph-name="Tbar" unicode="&#x166;" horiz-adv-x="452" 
d="M47 700h358v-63h-146v-227h94v-51h-94v-359h-65v359h-89v51h89v227h-147v63z" />
    <glyph glyph-name="tbar" unicode="&#x167;" horiz-adv-x="313" 
d="M276 450h-106v-108h106v-51h-106v-108q0 -48 4.5 -76t17 -42t27.5 -18.5t42 -4.5h15v-51h-27q-34 0 -56.5 7t-42 25.5t-28.5 55.5t-9 95v117h-76v51h76v108h-76v50h76v153h57v-153h106v-50z" />
    <glyph glyph-name="Umacron" unicode="&#x16a;" horiz-adv-x="524" 
d="M120 900h285v-52h-285v52zM128 240v460h-65v-469q0 -66 17 -114t46 -74.5t63 -38.5t74 -12q39 0 73 12t63.5 38t47 74.5t17.5 114.5v469h-65v-460q0 -98 -38.5 -141.5t-97.5 -43.5q-60 0 -97.5 43.5t-37.5 141.5z" />
    <glyph glyph-name="umacron" unicode="&#x16b;" 
d="M56 700h284v-52h-284v52zM294 500h56v-500h-43l-6 65q-34 -74 -118 -74q-27 0 -50.5 9t-44 28t-32 55t-11.5 84v333h56v-306q0 -152 97 -152q96 0 96 140v318z" />
    <glyph glyph-name="Uring" unicode="&#x16e;" horiz-adv-x="524" 
d="M262 920q40 0 69 -28.5t29 -68.5q0 -26 -13 -49t-35.5 -36t-49.5 -13q-41 0 -69 28.5t-28 69.5q0 40 28.5 68.5t68.5 28.5zM262 877q-22 0 -38 -16t-16 -38q0 -23 15.5 -39t38.5 -16t39 16t16 39q0 15 -7.5 27t-20 19.5t-27.5 7.5zM128 240v460h-65v-469q0 -66 17 -114
t46 -74.5t63 -38.5t74 -12q39 0 73 12t63.5 38t47 74.5t17.5 114.5v469h-65v-460q0 -98 -38.5 -141.5t-97.5 -43.5q-60 0 -97.5 43.5t-37.5 141.5z" />
    <glyph glyph-name="uring" unicode="&#x16f;" 
d="M198 720q40 0 68.5 -28.5t28.5 -68.5q0 -26 -13 -49t-35.5 -36t-48.5 -13q-41 0 -69 28.5t-28 69.5q0 40 28 68.5t69 28.5zM198 677q-23 0 -38.5 -16t-15.5 -38q0 -15 7 -27.5t19.5 -20t27.5 -7.5q22 0 38 16t16 39q0 15 -7.5 27t-20 19.5t-26.5 7.5zM294 500h56v-500
h-43l-6 65q-34 -74 -118 -74q-27 0 -50.5 9t-44 28t-32 55t-11.5 84v333h56v-306q0 -152 97 -152q96 0 96 140v318z" />
    <glyph glyph-name="Uhungarumlaut" unicode="&#x170;" horiz-adv-x="524" 
d="M198 906h71l-85 -130h-45zM314 906h72l-86 -130h-44zM128 240v460h-65v-469q0 -66 17 -114t46 -74.5t63 -38.5t74 -12q39 0 73 12t63.5 38t47 74.5t17.5 114.5v469h-66v-460q0 -98 -38 -141.5t-97 -43.5q-61 0 -98 43.5t-37 141.5z" />
    <glyph glyph-name="uhungarumlaut" unicode="&#x171;" 
d="M137 706h72l-86 -130h-44zM254 706h71l-85 -130h-45zM294 500h56v-500h-43l-6 65q-34 -74 -118 -74q-27 0 -50.5 9t-44 28t-32 55t-11.5 84v333h56v-306q0 -152 97 -152q96 0 96 140v318z" />
    <glyph glyph-name="Uogonek" unicode="&#x172;" horiz-adv-x="524" 
d="M399 700h65v-469q0 -85 -29 -136.5t-77 -74.5l-17 -20q-17 -12 -28.5 -22t-22 -27.5t-10.5 -35.5q1 -39 50 -40h15v-44h-15q-98 1 -99 73q0 21 10 40t20.5 28.5t25.5 20.5l-24 -1q-40 0 -74 12t-63 38.5t-46 74.5t-17 114v469h65v-460q0 -51 10.5 -88t30 -57.5t42.5 -30
t52 -9.5q59 0 97.5 43.5t38.5 141.5v460z" />
    <glyph glyph-name="uogonek" unicode="&#x173;" 
d="M294 500h56v-500q-19 -14 -29.5 -23t-21.5 -26t-11 -34q0 -41 50 -42h15v-44h-16q-95 1 -98 71q0 8 1.5 16t4.5 15.5t6 13.5t8.5 12t9 10t10.5 10t10 8t10 7t8 6l-6 65q-35 -74 -118 -74q-27 0 -50.5 9t-44 28t-32 55t-11.5 84v333h56v-306q0 -152 97 -152q96 0 96 140
v318z" />
    <glyph glyph-name="Wcircumflex" unicode="&#x174;" horiz-adv-x="804" 
d="M370 902h65l100 -136h-49l-84 90l-83 -90h-49zM691 700h66l-154 -700h-75l-126 546l-127 -546h-74l-154 700h66l129 -587l129 587h62l129 -587z" />
    <glyph glyph-name="wcircumflex" unicode="&#x175;" horiz-adv-x="667" 
d="M301 702h65l100 -136h-49l-84 90l-83 -90h-49zM573 500h57l-123 -500h-67l-107 392l-106 -392h-67l-123 500h56l104 -421l112 421h49l112 -421z" />
    <glyph glyph-name="Ycircumflex" unicode="&#x176;" horiz-adv-x="512" 
d="M224 902h65l100 -136h-49l-83 90l-84 -90h-49zM396 700h69l-177 -412v-288h-67v288l-174 412h69l139 -338z" />
    <glyph glyph-name="ycircumflex" unicode="&#x177;" horiz-adv-x="378" 
d="M157 702h65l100 -136h-49l-83 90l-84 -90h-49zM286 500h56v-508q-2 -45 -15.5 -78t-36 -51t-47.5 -26.5t-53 -8.5q-51 0 -91.5 27t-53.5 86h58q20 -62 87 -62q96 0 96 132v57q-33 -68 -111 -68q-27 0 -50.5 9t-44 28t-32 55t-11.5 84v324h56v-297q0 -152 96 -152t97 152
v297z" />
    <glyph glyph-name="Ydieresis" unicode="&#x178;" horiz-adv-x="512" 
d="M168 839v61h61v-61h-61zM285 839v61h61v-61h-61zM396 700h69l-177 -412v-288h-67v288l-174 412h69l139 -338z" />
    <glyph glyph-name="Zacute" unicode="&#x179;" horiz-adv-x="509" 
d="M246 906h76l-86 -130h-48zM54 700h403v-56l-339 -580h345v-64h-417v55l339 582h-331v63z" />
    <glyph glyph-name="zacute" unicode="&#x17a;" horiz-adv-x="372" 
d="M177 706h76l-86 -130h-48zM48 500h285v-44l-234 -405h237v-51h-299v44l235 404h-224v52z" />
    <glyph glyph-name="Zdotaccent" unicode="&#x17b;" horiz-adv-x="509" 
d="M225 900h61v-61h-61v61zM54 700h403v-56l-339 -580h345v-64h-417v55l339 582h-331v63z" />
    <glyph glyph-name="zdotaccent" unicode="&#x17c;" horiz-adv-x="372" 
d="M156 700h61v-61h-61v61zM48 500h285v-44l-234 -405h237v-51h-299v44l235 404h-224v52z" />
    <glyph glyph-name="Zcaron" unicode="&#x17d;" horiz-adv-x="509" 
d="M338 902h50l-101 -136h-64l-101 136h50l83 -91zM54 700h403v-56l-339 -580h345v-64h-417v55l339 582h-331v63z" />
    <glyph glyph-name="zcaron" unicode="&#x17e;" horiz-adv-x="372" 
d="M269 702h50l-101 -136h-64l-101 136h50l83 -91zM48 500h285v-44l-234 -405h237v-51h-299v44l235 404h-224v52z" />
    <glyph glyph-name="florin" unicode="&#x192;" horiz-adv-x="360" 
d="M307 706h18v-51h-13q-36 0 -54.5 -9.5t-31 -37t-22.5 -87.5l-4 -21h109v-51h-118l-76 -449h-56l76 449h-100v51h109l7 41q9 55 22 88t33.5 50t42.5 22t58 5z" />
    <glyph glyph-name="Acaron" unicode="&#x1cd;" horiz-adv-x="535" 
d="M351 902h50l-100 -136h-65l-101 136h50l83 -91zM227 700h81l180 -700h-65l-57 213h-196l-58 -213h-65zM356 279l-88 341l-89 -341h177z" />
    <glyph glyph-name="acaron" unicode="&#x1ce;" horiz-adv-x="393" 
d="M280 702h50l-100 -136h-65l-101 136h50l83 -91zM304 500h42v-500h-42l-6 65q-34 -73 -117 -73q-21 0 -40.5 5t-38 18t-32 32.5t-21.5 50.5t-8 70v165q0 48 12 84t33 55t44.5 28t50.5 9q83 0 117 -71zM97 306v-111q0 -152 97 -152q45 0 70.5 34t25.5 118v111
q0 152 -96 152q-97 0 -97 -152z" />
    <glyph glyph-name="Icaron" unicode="&#x1cf;" horiz-adv-x="193" 
d="M180 902h49l-100 -136h-65l-100 136h49l84 -91zM63 0v700h67v-700h-67z" />
    <glyph glyph-name="icaron" unicode="&#x1d0;" horiz-adv-x="250" 
d="M209 702h49l-100 -136h-65l-100 136h49l84 -91zM98 0v500h56v-500h-56z" />
    <glyph glyph-name="Ocaron" unicode="&#x1d1;" horiz-adv-x="518" 
d="M343 902h49l-100 -136h-65l-100 136h49l84 -91zM55 234v233q0 66 17.5 115t47.5 75.5t64.5 39t74.5 12.5q39 0 73.5 -12t65 -38.5t48 -75.5t17.5 -116v-233q0 -67 -17.5 -116t-48 -75.5t-65 -38.5t-73.5 -12q-40 0 -74.5 12.5t-64.5 39t-47.5 75t-17.5 115.5zM396 243
v215q0 53 -11 90.5t-31 58t-43.5 30t-51.5 9.5q-29 0 -52.5 -9.5t-43 -30t-30.5 -58t-11 -90.5v-215q0 -53 11 -90.5t30.5 -58t43 -30t52.5 -9.5q60 0 98.5 43.5t38.5 144.5z" />
    <glyph glyph-name="ocaron" unicode="&#x1d2;" horiz-adv-x="387" 
d="M277 702h50l-101 -136h-64l-101 136h50l83 -91zM41 168v165q0 48 13 83.5t35.5 55t48.5 28.5t55 9t55 -9t49 -28t36 -55t13 -84v-165q0 -48 -13 -84t-36 -55t-49 -28t-55 -9t-55 9t-48.5 28.5t-35.5 55t-13 83.5zM290 195v111q0 152 -97 152q-44 0 -70 -34t-26 -118v-111
q0 -84 25.5 -118t70.5 -34q97 0 97 152z" />
    <glyph glyph-name="Ucaron" unicode="&#x1d3;" horiz-adv-x="524" 
d="M345 902h50l-100 -136h-65l-101 136h50l83 -91zM128 240v460h-65v-469q0 -66 17 -114t46 -74.5t63 -38.5t74 -12q39 0 73 12t63.5 38t47 74.5t17.5 114.5v469h-65v-460q0 -98 -38.5 -141.5t-97.5 -43.5q-60 0 -97.5 43.5t-37.5 141.5z" />
    <glyph glyph-name="ucaron" unicode="&#x1d4;" 
d="M281 702h49l-100 -136h-65l-100 136h49l84 -91zM294 500h56v-500h-43l-6 65q-34 -74 -118 -74q-27 0 -50.5 9t-44 28t-32 55t-11.5 84v333h56v-306q0 -152 97 -152q96 0 96 140v318z" />
    <glyph glyph-name="Udieresismacron" unicode="&#x1d5;" horiz-adv-x="524" 
d="M120 945h285v-52h-285v52zM173 732v60h61v-60h-61zM291 732v60h61v-60h-61zM128 240v460h-65v-469q0 -66 17 -114t46 -74.5t63 -38.5t74 -12q39 0 73 12t63.5 38t47 74.5t17.5 114.5v469h-65v-460q0 -98 -38.5 -141.5t-97.5 -43.5q-60 0 -97.5 43.5t-37.5 141.5z" />
    <glyph glyph-name="udieresismacron" unicode="&#x1d6;" 
d="M56 745h284v-52h-284v52zM109 543v61h61v-61h-61zM226 543v61h61v-61h-61zM294 500h56v-500h-43l-6 65q-34 -74 -118 -74q-27 0 -50.5 9t-44 28t-32 55t-11.5 84v333h56v-306q0 -152 97 -152q96 0 96 140v318z" />
    <glyph glyph-name="Udieresisacute" unicode="&#x1d7;" horiz-adv-x="524" 
d="M255 959h76l-86 -130h-48zM173 792h61v-60h-61v60zM291 792h61v-60h-61v60zM399 700h65v-469q0 -66 -17.5 -114.5t-47 -74.5t-63.5 -38t-73 -12q-40 0 -74 12t-63 38.5t-46 74.5t-17 114v469h65v-460q0 -51 10.5 -88t30 -57.5t42.5 -30t52 -9.5q59 0 97.5 43.5
t38.5 141.5v460z" />
    <glyph glyph-name="udieresisacute" unicode="&#x1d8;" 
d="M189 758h75l-85 -130h-48zM109 543v61h61v-61h-61zM226 543v61h61v-61h-61zM294 500h56v-500h-43l-6 65q-34 -74 -118 -74q-27 0 -50.5 9t-44 28t-32 55t-11.5 84v333h56v-306q0 -152 97 -152q96 0 96 140v318z" />
    <glyph glyph-name="Udieresiscaron" unicode="&#x1d9;" horiz-adv-x="524" 
d="M345 954h50l-100 -136h-65l-101 136h50l83 -91zM173 732v60h61v-60h-61zM291 732v60h61v-60h-61zM128 240v460h-65v-469q0 -66 17 -114t46 -74.5t63 -38.5t74 -12q39 0 73 12t63.5 38t47 74.5t17.5 114.5v469h-65v-460q0 -98 -38.5 -141.5t-97.5 -43.5q-60 0 -97.5 43.5
t-37.5 141.5z" />
    <glyph glyph-name="udieresiscaron" unicode="&#x1da;" 
d="M281 753h49l-100 -136h-65l-100 136h49l84 -90zM109 543v61h61v-61h-61zM226 543v61h61v-61h-61zM294 500h56v-500h-43l-6 65q-34 -74 -118 -74q-27 0 -50.5 9t-44 28t-32 55t-11.5 84v333h56v-306q0 -152 97 -152q96 0 96 140v318z" />
    <glyph glyph-name="Udieresisgrave" unicode="&#x1db;" horiz-adv-x="524" 
d="M195 959h76l58 -131h-48zM173 732v60h61v-60h-61zM291 732v60h61v-60h-61zM128 240v460h-65v-469q0 -66 17 -114t46 -74.5t63 -38.5t74 -12q39 0 73 12t63.5 38t47 74.5t17.5 114.5v469h-65v-460q0 -98 -38.5 -141.5t-97.5 -43.5q-60 0 -97.5 43.5t-37.5 141.5z" />
    <glyph glyph-name="udieresisgrave" unicode="&#x1dc;" 
d="M131 758h75l58 -130h-48zM109 543v61h61v-61h-61zM226 543v61h61v-61h-61zM294 500h56v-500h-43l-6 65q-34 -74 -118 -74q-27 0 -50.5 9t-44 28t-32 55t-11.5 84v333h56v-306q0 -152 97 -152q96 0 96 140v318z" />
    <glyph glyph-name="Scommaaccent" unicode="&#x218;" horiz-adv-x="500" 
d="M446 490h-63q0 77 -37.5 116.5t-90.5 39.5t-89 -30.5t-36 -89.5q0 -19 5 -35t11.5 -27t18.5 -21t20 -15.5t23.5 -12t22.5 -8.5t23 -6t18 -5q95 -26 138.5 -74.5t43.5 -127.5q0 -55 -16 -95.5t-45.5 -63t-64.5 -33t-79 -10.5q-37 0 -71.5 11.5t-64.5 36t-48.5 68.5
t-18.5 102h63q0 -33 8.5 -60t22.5 -44.5t32.5 -29t37.5 -16.5t39 -5q43 0 73.5 14t48.5 44t18 75q0 34 -10 58.5t-31 41t-44.5 27t-58.5 20.5q-22 6 -32 9.5t-32.5 12t-35 17t-30 23.5t-27 31.5t-16.5 41t-7 52.5q0 50 16 88t44 58.5t60.5 30.5t69.5 10q36 0 68.5 -11.5
t61 -36t45 -69t16.5 -102.5zM218 -150v65h65v-65l-26 -62h-23l11 62h-27z" />
    <glyph glyph-name="scommaaccent" unicode="&#x219;" horiz-adv-x="376" 
d="M91 149v-9q2 -51 30 -74t67 -23q97 0 97 92q0 44 -25 68.5t-75 39.5q-21 5 -37 10.5t-36 16.5t-33 24.5t-21.5 35.5t-8.5 48q0 67 40.5 99t102.5 32q57 0 99.5 -37t44.5 -108v-10h-56v11q-3 48 -27.5 70.5t-60.5 22.5q-87 0 -87 -77q0 -21 8.5 -37t25 -26t27.5 -14
t29 -10q4 -1 6 -2q76 -20 108.5 -58.5t32.5 -96.5q0 -50 -21.5 -83.5t-55 -47.5t-77.5 -14q-59 0 -105 37t-48 109v11h56zM156 -85h65v-65l-26 -62h-23l11 62h-27v65z" />
    <glyph glyph-name="uni021A" unicode="&#x21a;" horiz-adv-x="452" 
d="M47 700h358v-63h-146v-637h-65v637h-147v63zM194 -85h65v-65l-26 -62h-23l11 62h-27v65z" />
    <glyph glyph-name="uni021B" unicode="&#x21b;" horiz-adv-x="313" 
d="M170 450v-260q0 -49 4.5 -78.5t17 -45t28 -20t43.5 -4.5h13v-51h-26q-35 0 -57.5 6.5t-42 25.5t-28.5 56t-9 95v276h-76v50h76v153h57v-153h106v-50h-106zM136 -85h65v-65l-26 -62h-23l11 62h-27v65z" />
    <glyph glyph-name="circumflex" unicode="&#x2c6;" horiz-adv-x="383" 
d="M159 702h65l100 -136h-49l-84 90l-83 -90h-49z" />
    <glyph glyph-name="caron" unicode="&#x2c7;" horiz-adv-x="383" 
d="M275 702h49l-100 -136h-65l-100 136h49l83 -91z" />
    <glyph glyph-name="breve" unicode="&#x2d8;" horiz-adv-x="355" 
d="M105 700h-51q7 -45 42 -74.5t82 -29.5q30 0 57 13.5t44 37.5t22 53h-51q-3 -12 -10 -22t-16.5 -17t-21.5 -11t-24 -4q-17 0 -32 7t-25.5 19t-15.5 28z" />
    <glyph glyph-name="dotaccent" unicode="&#x2d9;" horiz-adv-x="165" 
d="M52 639v61h61v-61h-61z" />
    <glyph glyph-name="ring" unicode="&#x2da;" horiz-adv-x="309" 
d="M154 720q40 0 69 -28.5t29 -68.5q0 -26 -13 -49t-35.5 -36t-49.5 -13q-41 0 -69 28.5t-28 69.5q0 40 28.5 68.5t68.5 28.5zM154 677q-11 0 -21 -4.5t-17 -11.5t-11.5 -17t-4.5 -21q0 -15 7 -27.5t19.5 -20t27.5 -7.5q23 0 39 16t16 39q0 15 -7.5 27t-20 19.5t-27.5 7.5z
" />
    <glyph glyph-name="ogonek" unicode="&#x2db;" horiz-adv-x="214" 
d="M115 0h46q-19 -14 -30 -23.5t-21.5 -26.5t-10.5 -35q1 -39 50 -40h15v-44h-15q-95 1 -99 70q0 10 2 19t4.5 16.5t8 15t9.5 12.5t11 11.5t10.5 9.5t10.5 8.5t9 6.5z" />
    <glyph glyph-name="tilde" unicode="&#x2dc;" horiz-adv-x="361" 
d="M272 702h45q0 -125 -70 -125q-11 0 -21.5 3.5t-23.5 13t-31 27.5t-28.5 23t-23.5 4q-9 0 -15 -4.5t-9.5 -14t-4.5 -21.5t-1 -31h-45q0 125 69 125q20 0 35.5 -10t42.5 -34q26 -29 52 -27q17 1 23 17.5t6 53.5z" />
    <glyph glyph-name="hungarumlaut" unicode="&#x2dd;" horiz-adv-x="364" 
d="M114 706h71l-85 -130h-45zM230 706h72l-86 -130h-44z" />
    <glyph glyph-name="commaaccentcomb" unicode="&#x326;" horiz-adv-x="0" 
d="M52 -88h61v-60l-24 -59h-22l11 59h-26v60z" />
    <glyph glyph-name="Delta" unicode="&#x394;" horiz-adv-x="494" 
d="M454 69v-69h-414v69l167 631h80zM101 65h292l-145 556z" />
    <glyph glyph-name="Omega" unicode="&#x3a9;" horiz-adv-x="511" 
d="M52 255v212q0 66 17.5 115t47.5 75.5t64.5 39t74.5 12.5q39 0 73.5 -12t65 -38.5t48 -75.5t17.5 -116v-212q0 -71 -21 -118t-57 -73h87v-64h-165v64q90 43 90 199v195q0 101 -39 144.5t-99 43.5q-61 0 -99 -43.5t-38 -144.5v-195q0 -157 88 -198v-65h-165v64h89
q-79 56 -79 191z" />
    <glyph glyph-name="mu" unicode="&#x3bc;" horiz-adv-x="490" 
d="M298 501h56v-323q2 -74 30 -105t72 -31v-51h-11q-23 1 -43.5 9t-39.5 26t-29 45q-30 -79 -118 -79q-78 0 -110 68v-223h-56v664h56v-318q0 -140 96 -140q97 0 97 152v306z" />
    <glyph glyph-name="pi" unicode="&#x3c0;" horiz-adv-x="562" 
d="M35 500h492v-53h-102v-269q2 -74 30 -104.5t72 -31.5v-51h-20q-26 1 -49 10.5t-43.5 28.5t-33 53.5t-12.5 81.5v282h-176v-447h-57v447h-101v53z" />
    <glyph glyph-name="afii10017" unicode="&#x410;" horiz-adv-x="535" 
d="M423 0l-57 213h-196l-57 -213h-66l180 700h81l180 -700h-65zM179 279h177l-88 341z" />
    <glyph glyph-name="afii10018" unicode="&#x411;" horiz-adv-x="476" 
d="M63 706h329v-63h-264v-251h104q68 -1 116 -24t72.5 -66t24.5 -103v-15q-1 -90 -56 -139.5t-160 -50.5h-166v712zM235 325h-107v-265h107q68 0 106.5 32t39.5 96v8q0 64 -39.5 96.5t-106.5 32.5z" />
    <glyph glyph-name="afii10019" unicode="&#x412;" horiz-adv-x="476" 
d="M63 706h171q38 0 72.5 -9t63.5 -28t46.5 -52.5t17.5 -77.5v-27q0 -57 -28.5 -94.5t-76.5 -55.5q55 -18 85.5 -59.5t30.5 -103.5v-25q0 -86 -56.5 -133t-153.5 -47h-172v712zM370 513v7q0 35 -11.5 60t-32 38t-43.5 19t-50 6h-105v-252h105q57 0 97 29t40 93zM378 190v7
q0 67 -39 100t-106 33h-105v-273h105q68 0 106.5 33t38.5 100z" />
    <glyph glyph-name="afii10020" unicode="&#x413;" horiz-adv-x="440" 
d="M392 700v-63h-264v-637h-65v700h329z" />
    <glyph glyph-name="afii10021" unicode="&#x414;" horiz-adv-x="622" 
d="M534 63h57v-183h-65v120h-429v-120h-65v183h39q46 13 73.5 57t27.5 125v455h362v-637zM168 63h301v574h-232v-401q0 -121 -69 -173z" />
    <glyph glyph-name="afii10022" unicode="&#x415;" horiz-adv-x="398" 
d="M366 637h-238v-246h228v-63h-228v-265h238v-63h-303v700h303v-63z" />
    <glyph glyph-name="afii10024" unicode="&#x416;" horiz-adv-x="811" 
d="M764 0h-73l-252 308v-308h-67v307l-251 -307h-74l274 358l-255 342h74l232 -290v290h67v-290l233 290h73l-254 -342z" />
    <glyph glyph-name="afii10025" unicode="&#x417;" horiz-adv-x="482" 
d="M235 709h21q31 -1 61.5 -11t59.5 -30t47 -57t19 -84v-18q0 -58 -28.5 -96.5t-73.5 -53.5q33 -9 57.5 -30.5t38 -54.5t13.5 -74v-15q0 -39 -11 -71t-29.5 -54t-43.5 -37.5t-53 -23t-58 -7.5h-20q-34 1 -66 12t-61.5 33t-49.5 61t-26 91v6h65q9 -71 50.5 -105.5t94.5 -34.5
h11q54 1 92.5 36t38.5 97v6q0 66 -39 100t-107 34h-62v62h62q59 0 98.5 30.5t39.5 94.5v7q0 32 -12 57.5t-31.5 39t-40 20.5t-39.5 7h-11q-51 0 -91.5 -32.5t-51.5 -99.5h-66l1 8q7 49 27.5 86t49 58t60 31.5t64.5 11.5z" />
    <glyph glyph-name="afii10026" unicode="&#x418;" horiz-adv-x="513" 
d="M386 700h65v-700h-66v564l-258 -564h-65v700h66v-563z" />
    <glyph glyph-name="afii10027" unicode="&#x419;" horiz-adv-x="513" 
d="M333 856h50q-7 -45 -42 -75t-81.5 -30t-81.5 30t-42 75h51q7 -24 27 -39.5t46 -15.5q25 0 45.5 15.5t27.5 39.5zM386 700h65v-700h-66v564l-258 -564h-65v700h66v-563z" />
    <glyph glyph-name="afii10028" unicode="&#x41a;" horiz-adv-x="502" 
d="M455 0h-73l-252 308v-308h-67v700h67v-290l232 290h74l-255 -342z" />
    <glyph glyph-name="afii10029" unicode="&#x41b;" horiz-adv-x="597" 
d="M172 700h362v-700h-65v637h-232v-403q0 -65 -16.5 -113t-44.5 -75t-60 -40t-69 -14h-15v63q60 0 100 44t40 144v457z" />
    <glyph glyph-name="afii10030" unicode="&#x41c;" horiz-adv-x="623" 
d="M483 700h77v-700h-65v539l-161 -539h-45l-161 539v-539h-66v700h78l171 -592z" />
    <glyph glyph-name="afii10031" unicode="&#x41d;" horiz-adv-x="499" 
d="M371 700h65v-700h-65v328h-243v-328h-65v700h65v-309h243v309z" />
    <glyph glyph-name="afii10032" unicode="&#x41e;" horiz-adv-x="526" 
d="M59 234v233q0 66 17.5 115t47 75.5t64 39t74.5 12.5t74 -12t64.5 -38.5t48.5 -75.5t18 -116v-233q0 -67 -18 -116t-48.5 -75.5t-64.5 -38.5t-74 -12t-74.5 12.5t-64 39t-47 75.5t-17.5 115zM400 243v215q0 53 -11.5 90.5t-31.5 58t-43 30t-52 9.5q-22 0 -41.5 -5.5
t-37.5 -19t-30.5 -34.5t-19.5 -53.5t-7 -75.5v-215q0 -53 10.5 -90.5t30.5 -58t43 -30t52 -9.5q61 0 99.5 43.5t38.5 144.5z" />
    <glyph glyph-name="afii10033" unicode="&#x41f;" horiz-adv-x="499" 
d="M63 700h373v-700h-66v637h-242v-637h-65v700z" />
    <glyph glyph-name="afii10034" unicode="&#x420;" horiz-adv-x="487" 
d="M63 700h155q40 0 75.5 -9.5t66.5 -29.5t49.5 -56.5t18.5 -85.5v-37q0 -47 -17.5 -82.5t-47.5 -56t-65 -30.5t-74 -11h-96v-302h-65v700zM364 492v17q0 37 -11.5 63t-32.5 39.5t-44 19.5t-50 6h-98v-272h98q27 0 50 6t44 20t32.5 40t11.5 61z" />
    <glyph glyph-name="afii10035" unicode="&#x421;" horiz-adv-x="497" 
d="M62 234v233q0 67 17.5 115.5t47.5 75t64.5 39t74.5 12.5q38 0 71 -11.5t62 -36.5t46.5 -71t19.5 -109v-14h-65l-1 14q-2 45 -13.5 78t-30.5 51.5t-41 27t-48 8.5q-61 0 -99 -43.5t-38 -144.5v-215q0 -52 11 -90t30.5 -58.5t43 -30t52.5 -9.5q56 0 92.5 39t41.5 129v11h65
v-13q-2 -63 -19.5 -109.5t-46.5 -71.5t-62 -36.5t-71 -11.5q-40 0 -74.5 12.5t-64.5 39t-47.5 75.5t-17.5 115z" />
    <glyph glyph-name="afii10036" unicode="&#x422;" horiz-adv-x="452" 
d="M405 700v-63h-146v-637h-65v637h-147v63h358z" />
    <glyph glyph-name="afii10037" unicode="&#x423;" horiz-adv-x="519" 
d="M402 700h70l-178 -417v-283h-67v283l-180 417h70l142 -341z" />
    <glyph glyph-name="afii10038" unicode="&#x424;" horiz-adv-x="739" 
d="M402 706v-78h74q91 -2 148 -48.5t57 -138.5v-16q0 -91 -57 -138t-148 -48h-74v-239h-65v239h-74q-91 2 -147.5 48.5t-56.5 137.5v16q0 92 56.5 138.5t147.5 48.5h74v78h65zM617 429v8q0 36 -11.5 61t-32.5 38.5t-44 19.5t-51 6h-76v-257h76q22 0 41 3.5t37.5 12.5
t31.5 22.5t21 35.5t8 50zM337 305v257h-75q-28 0 -51.5 -6t-44 -19.5t-32 -38.5t-11.5 -61v-8q0 -67 39.5 -95.5t99.5 -28.5h75z" />
    <glyph glyph-name="afii10039" unicode="&#x425;" horiz-adv-x="508" 
d="M458 700l-163 -346l166 -354h-69l-138 289l-138 -289h-69l165 353l-162 347h69l135 -285l136 285h68z" />
    <glyph glyph-name="afii10040" unicode="&#x426;" horiz-adv-x="532" 
d="M436 65h64v-171h-66v106h-371v700h65v-637h243v637h65v-635z" />
    <glyph glyph-name="afii10041" unicode="&#x427;" horiz-adv-x="455" 
d="M341 700h66v-700h-65v328q-34 -70 -135 -70q-79 0 -126 40.5t-47 135.5v266h65v-224q0 -85 32 -118t89 -33q28 0 48.5 6t38 21.5t26 44t8.5 70.5v233z" />
    <glyph glyph-name="afii10042" unicode="&#x428;" horiz-adv-x="806" 
d="M678 700h65v-700h-680v700h65v-637h243v637h65v-637h242v637z" />
    <glyph glyph-name="afii10043" unicode="&#x429;" horiz-adv-x="839" 
d="M743 65h65v-171h-66v106h-679v700h65v-637h243v637h65v-637h242v637h65v-635z" />
    <glyph glyph-name="afii10044" unicode="&#x42a;" horiz-adv-x="571" 
d="M198 392h103q103 -2 157 -52t55 -140v-13q0 -92 -56.5 -142.5t-162.5 -50.5h-161v648h-87v64h152v-314zM449 190v6q0 43 -19 72.5t-51 43.5t-76 14h-105v-266h105q69 0 107.5 32.5t38.5 97.5z" />
    <glyph glyph-name="afii10045" unicode="&#x42b;" horiz-adv-x="663" 
d="M128 706v-314h103q68 -2 115.5 -24.5t71.5 -65t25 -102.5v-13q0 -92 -56.5 -142.5t-163.5 -50.5h-160v712h65zM532 700h68v-700h-68v700zM128 61l104 -1q70 0 108.5 32.5t38.5 97.5v6q0 64 -39.5 97t-107.5 33h-104v-265z" />
    <glyph glyph-name="afii10046" unicode="&#x42c;" horiz-adv-x="501" 
d="M128 706v-314h103q68 -2 115.5 -24.5t71.5 -65t25 -102.5v-13q0 -92 -56.5 -142.5t-163.5 -50.5h-160v712h65zM128 61l104 -1q70 0 108.5 32.5t38.5 97.5v6q0 64 -39.5 97t-107.5 33h-104v-265z" />
    <glyph glyph-name="afii10047" unicode="&#x42d;" horiz-adv-x="497" 
d="M32 473v5q1 64 18.5 110.5t46.5 72t62.5 37t71.5 11.5q40 0 74.5 -12.5t64.5 -39t47 -75.5t17 -115v-233q0 -66 -17 -115t-47 -75.5t-64.5 -39t-74.5 -12.5q-38 0 -71.5 11.5t-62.5 37t-46.5 72t-18.5 110.5v6h65q3 -93 40 -133.5t94 -40.5q61 0 99 43.5t38 144.5v77
h-204v64h204v74q0 101 -38 144.5t-99 43.5q-57 0 -94 -40.5t-40 -132.5h-65z" />
    <glyph glyph-name="afii10048" unicode="&#x42e;" horiz-adv-x="702" 
d="M235 384v83q0 39 6 71.5t16.5 57t26 44t33 32.5t38 21.5t41 12t42.5 3.5q40 0 74 -12t64.5 -38.5t48.5 -75.5t18 -116v-233q0 -67 -18 -116t-48.5 -75.5t-64.5 -38.5t-74 -12t-74 12.5t-64 39t-47.5 75.5t-17.5 115v86h-107v-320h-65v700h65v-316h107zM576 243v215
q0 101 -38.5 144.5t-99.5 43.5q-28 0 -51.5 -9.5t-43.5 -30t-30.5 -58t-10.5 -90.5v-215q0 -53 10.5 -90.5t30.5 -58t43.5 -30t51.5 -9.5q61 0 99.5 43.5t38.5 144.5z" />
    <glyph glyph-name="afii10049" unicode="&#x42f;" horiz-adv-x="490" 
d="M265 706h162v-706h-65v316h-116l-128 -316h-71l138 334q-37 9 -65 28t-47 53.5t-19 80.5v30q0 49 18.5 85.5t50 56.5t67 29t75.5 9zM362 378v266h-106q-27 0 -50 -6t-43.5 -19.5t-32.5 -40t-12 -62.5v-10q0 -36 12 -62t32.5 -39.5t43.5 -20t50 -6.5h106z" />
    <glyph glyph-name="afii10065" unicode="&#x430;" horiz-adv-x="393" 
d="M304 500h42v-500h-42l-6 65q-34 -73 -117 -73q-21 0 -40.5 5t-38 18t-32 32.5t-21.5 50.5t-8 70v165q0 48 12 84t33 55t44.5 28t50.5 9q83 0 117 -71zM97 306v-111q0 -152 97 -152q45 0 70.5 34t25.5 118v111q0 152 -96 152q-97 0 -97 -152z" />
    <glyph glyph-name="afii10066" unicode="&#x431;" horiz-adv-x="393" 
d="M47 168v369q1 47 14 81.5t35.5 53.5t48 28t54.5 9q33 0 60.5 -10.5t51 -37.5t32.5 -69l2 -9h-57q-20 75 -89 75q-95 0 -96 -134v-79q17 30 44.5 46.5t60.5 16.5q27 0 51.5 -9t46 -28t34 -54.5t12.5 -83.5v-165q0 -48 -13 -84t-36 -55t-48.5 -28t-55.5 -9q-62 0 -106 42.5
t-46 133.5zM296 195v111q0 152 -97 152q-27 0 -48 -13.5t-34.5 -48.5t-13.5 -90v-111q1 -84 26 -118t71 -34q97 0 96 152z" />
    <glyph glyph-name="afii10067" unicode="&#x432;" horiz-adv-x="383" 
d="M49 506h115q94 0 133 -36.5t39 -104.5q0 -81 -65 -107q77 -28 77 -120q0 -71 -42 -107.5t-140 -36.5h-117v512zM105 281h53q48 0 75 9t37 26.5t10 47.5q0 48 -25.5 68.5t-96.5 21.5h-53v-173zM105 46h53q76 0 105 20t29 71q0 26 -6.5 43t-22.5 28.5t-41 16t-64 5.5h-53
v-184z" />
    <glyph glyph-name="afii10068" unicode="&#x433;" horiz-adv-x="354" 
d="M318 500v-51h-213v-449h-56v500h269z" />
    <glyph glyph-name="afii10069" unicode="&#x434;" horiz-adv-x="502" 
d="M129 500h289v-449h49v-155h-56v104h-320v-104h-56v155h28q65 20 66 130v319zM362 51v398h-176v-282q-1 -78 -43 -116h219z" />
    <glyph glyph-name="afii10070" unicode="&#x435;" horiz-adv-x="385" 
d="M41 168v165q0 48 13 83.5t35.5 55t48.5 28.5t55 9t54.5 -9t48.5 -28t36 -55t13 -84v-108h-248v-44q0 -76 26 -107t70 -31q92 0 96 119h56q0 -47 -13.5 -81.5t-36 -53t-48 -27t-54.5 -8.5t-55 9t-48.5 28.5t-35.5 55t-13 83.5zM289 269v55q0 134 -96 134t-96 -134v-55h192
z" />
    <glyph glyph-name="afii10072" unicode="&#x436;" horiz-adv-x="595" 
d="M555 0h-61l-169 226v-226h-56v226l-170 -226h-60l181 256l-172 244h61l160 -214v214h56v-214l160 214h60l-171 -244z" />
    <glyph glyph-name="afii10073" unicode="&#x437;" horiz-adv-x="401" 
d="M189 509h21q69 0 107 -38t38 -101q0 -92 -85 -114q96 -21 96 -127q0 -64 -44.5 -100.5t-111.5 -36.5h-21q-25 1 -48.5 9t-46.5 23t-36.5 43t-13.5 64h55q0 -25 10 -43t26 -27.5t31.5 -13.5t31.5 -4h4q52 0 80.5 24.5t28.5 69.5q0 92 -117 92h-48v51h46q58 0 84 21.5
t26 63.5q0 43 -25.5 68t-74.5 25h-3q-16 0 -32 -4t-31.5 -13.5t-25.5 -27.5t-10 -43h-56q0 29 9 53t24 39.5t34.5 26t38.5 15t39 5.5z" />
    <glyph glyph-name="afii10074" unicode="&#x438;" horiz-adv-x="403" 
d="M299 500h56v-500h-56v385l-194 -385h-56v500h56v-384z" />
    <glyph glyph-name="afii10075" unicode="&#x439;" horiz-adv-x="403" 
d="M273 700h51q-7 -45 -42 -74.5t-81.5 -29.5t-81.5 29.5t-42 74.5h51q3 -12 10 -22t16.5 -17t21.5 -11t24 -4q13 0 25 4t21.5 11t16.5 17t10 22zM299 500h56v-500h-56v385l-194 -385h-56v500h56v-385z" />
    <glyph glyph-name="afii10076" unicode="&#x43a;" horiz-adv-x="371" 
d="M335 0h-61l-169 226v-226h-56v500h56v-214l160 214h61l-172 -244z" />
    <glyph glyph-name="afii10077" unicode="&#x43b;" horiz-adv-x="474" 
d="M136 500h289v-500h-56v449h-176v-284q0 -38 -8.5 -68t-22 -49t-31.5 -32t-37 -18.5t-39 -6.5h-20v51q99 1 101 136v322z" />
    <glyph glyph-name="afii10078" unicode="&#x43c;" horiz-adv-x="456" 
d="M348 500h59v-500h-52v366l-112 -366h-31l-111 366v-366h-52v500h59l120 -407z" />
    <glyph glyph-name="afii10079" unicode="&#x43d;" horiz-adv-x="400" 
d="M296 500h56v-500h-56v232h-191v-232h-56v500h56v-216h191v216z" />
    <glyph glyph-name="afii10080" unicode="&#x43e;" horiz-adv-x="387" 
d="M41 168v165q0 48 13 83.5t35.5 55t48.5 28.5t55 9t55 -9t49 -28t36 -55t13 -84v-165q0 -48 -13 -84t-36 -55t-49 -28t-55 -9t-55 9t-48.5 28.5t-35.5 55t-13 83.5zM290 195v111q0 152 -97 152q-44 0 -70 -34t-26 -118v-111q0 -84 25.5 -118t70.5 -34q97 0 97 152z" />
    <glyph glyph-name="afii10081" unicode="&#x43f;" horiz-adv-x="400" 
d="M49 500h303v-500h-56v449h-191v-449h-56v500z" />
    <glyph glyph-name="afii10082" unicode="&#x440;" 
d="M90 500l6 -66q34 74 118 74q27 0 50.5 -9t44 -28t32.5 -54.5t12 -84.5v-165q0 -48 -12 -83.5t-32.5 -55t-44 -28.5t-50.5 -9q-78 0 -110 66v-220h-56v663h42zM297 194v111q-1 152 -97 152q-45 0 -70.5 -34t-25.5 -118v-111q0 -152 96 -152q97 0 97 152z" />
    <glyph glyph-name="afii10083" unicode="&#x441;" horiz-adv-x="384" 
d="M41 168v165q0 48 13 83.5t35.5 55t48.5 28.5t55 9t54 -8.5t47.5 -27t36 -52.5t14.5 -81v-16h-55q-3 134 -97 134q-44 0 -70 -34t-26 -118v-111q0 -84 25.5 -118t70.5 -34q95 0 97 134h55v-16q-1 -47 -14.5 -81t-36 -52.5t-47.5 -27t-54 -8.5t-55 9t-48.5 28.5t-35.5 55
t-13 83.5z" />
    <glyph glyph-name="afii10084" unicode="&#x442;" horiz-adv-x="393" 
d="M37 500h319v-51h-132v-449h-56v449h-131v51z" />
    <glyph glyph-name="afii10085" unicode="&#x443;" horiz-adv-x="378" 
d="M286 500h56v-508q-2 -45 -15.5 -78t-36 -51t-47.5 -26.5t-53 -8.5q-51 0 -91.5 27t-54.5 86h59q20 -62 86 -62q97 0 97 132v57q-33 -68 -111 -68q-27 0 -50.5 9t-44 28t-32 55t-11.5 84v324h56v-297q0 -152 96 -152t97 152v297z" />
    <glyph glyph-name="afii10086" unicode="&#x444;" horiz-adv-x="636" 
d="M290 700h56v-260q32 68 111 68q27 0 50.5 -9t44 -28t32 -54.5t11.5 -84.5v-165q0 -48 -11.5 -83.5t-32 -55t-44 -28.5t-50.5 -9q-78 0 -111 66v-220h-56v220q-33 -66 -110 -66q-22 0 -41 5.5t-37.5 18t-31.5 32.5t-21 50.5t-8 69.5v165q0 25 3 46.5t9 38t14 30.5t18 24
t21 17t23.5 11.5t25 6.5t25.5 2q78 0 110 -67v259zM290 194v111q0 84 -25.5 118t-70.5 34q-97 0 -97 -152v-111q0 -152 97 -152q96 0 96 152zM539 194v111q0 152 -97 152q-45 0 -70.5 -34t-25.5 -118v-111q0 -152 96 -152q97 0 97 152z" />
    <glyph glyph-name="afii10087" unicode="&#x445;" horiz-adv-x="399" 
d="M361 500l-120 -247l122 -253h-59l-104 204l-105 -204h-58l122 252l-120 248h58l103 -212l102 212h59z" />
    <glyph glyph-name="afii10088" unicode="&#x446;" horiz-adv-x="439" 
d="M352 51h52v-140h-57v89h-298v500h56v-449h191v449h56v-449z" />
    <glyph glyph-name="afii10089" unicode="&#x447;" horiz-adv-x="398" 
d="M294 500h56v-500h-56v220q-32 -68 -111 -68q-27 0 -50.5 8.5t-44 28t-32 55t-11.5 84.5v172h56v-145q0 -152 97 -152q96 0 96 140v157z" />
    <glyph glyph-name="afii10090" unicode="&#x448;" horiz-adv-x="647" 
d="M543 500h56v-500h-550v500h56v-449h191v449h56v-449h191v449z" />
    <glyph glyph-name="afii10091" unicode="&#x449;" horiz-adv-x="686" 
d="M599 51h52v-140h-57v89h-545v500h56v-449h191v449h56v-449h191v449h56v-449z" />
    <glyph glyph-name="afii10092" unicode="&#x44a;" horiz-adv-x="422" 
d="M152 283h55q96 0 138 -35t42 -104v-14q-1 -68 -43.5 -102t-137.5 -34h-111v455h-60v51h117v-217zM332 134v4q0 51 -29.5 71.5t-104.5 20.5h-47v-184h47q75 0 104 19.5t30 68.5z" />
    <glyph glyph-name="afii10093" unicode="&#x44b;" horiz-adv-x="519" 
d="M49 500h56v-217h55q96 0 138 -35t42 -104v-14q0 -45 -18 -74.5t-58 -45.5t-105 -16h-110v506zM414 0v500h56v-500h-56zM285 134v4q0 51 -29 71.5t-104 20.5h-47v-184h47q74 0 103 19.5t30 68.5z" />
    <glyph glyph-name="afii10094" unicode="&#x44c;" horiz-adv-x="375" 
d="M49 500h56v-217h55q96 0 138 -35t42 -104v-14q0 -45 -18 -74.5t-58 -45.5t-105 -16h-110v506zM285 134v4q0 51 -29 71.5t-104 20.5h-47v-184h47q74 0 103 19.5t30 68.5z" />
    <glyph glyph-name="afii10095" unicode="&#x44d;" horiz-adv-x="384" 
d="M94 333h-55q0 48 13 84t36 55t48.5 28t55 9t55 -9t48 -28.5t35.5 -55t13 -83.5v-165q0 -48 -13 -83.5t-35.5 -55t-48 -28.5t-55 -9t-55 9t-48.5 28t-36 54.5t-13 84.5h55q3 -125 97 -125q96 0 96 132v52h-130v50h130v50q0 131 -96 131q-93 0 -97 -125z" />
    <glyph glyph-name="afii10096" unicode="&#x44e;" horiz-adv-x="545" 
d="M199 276v57q0 28 5 52t13 41.5t19.5 32t24.5 23.5t28.5 15.5t30.5 9t32 2.5q29 0 54.5 -9t48.5 -28t36.5 -55t13.5 -84v-165q0 -48 -13.5 -84t-36.5 -55t-48.5 -28t-55 -9t-55 9t-48 28.5t-36 55t-13.5 83.5v59h-94v-227h-56v500h56v-224h94zM448 195v111q0 152 -96 152
q-45 0 -70.5 -34t-25.5 -118v-111q0 -44 7 -74.5t20.5 -47t30 -23.5t38.5 -7q97 0 96 152z" />
    <glyph glyph-name="afii10097" unicode="&#x44f;" horiz-adv-x="378" 
d="M210 506h119v-506h-57v226l-88 -4l-92 -222h-57l96 239q-50 13 -71 41t-21 75v14q0 68 39 102.5t132 34.5zM218 278h55v177h-55q-49 0 -76.5 -10.5t-37.5 -29t-10 -51.5q0 -47 25.5 -66.5t98.5 -19.5z" />
    <glyph glyph-name="Wgrave" unicode="&#x1e80;" horiz-adv-x="804" 
d="M336 907h75l58 -131h-48zM691 700h66l-154 -700h-75l-126 546l-127 -546h-74l-154 700h66l129 -587l129 587h62l129 -587z" />
    <glyph glyph-name="wgrave" unicode="&#x1e81;" horiz-adv-x="667" 
d="M266 707h76l58 -131h-48zM573 500h57l-123 -500h-67l-107 392l-106 -392h-67l-123 500h56l104 -421l112 421h49l112 -421z" />
    <glyph glyph-name="Wacute" unicode="&#x1e82;" horiz-adv-x="804" 
d="M394 906h75l-85 -130h-48zM691 700h66l-154 -700h-75l-126 546l-127 -546h-74l-154 700h66l129 -587l129 587h62l129 -587z" />
    <glyph glyph-name="wacute" unicode="&#x1e83;" horiz-adv-x="667" 
d="M325 706h75l-85 -130h-49zM573 500h57l-123 -500h-67l-107 392l-106 -392h-67l-123 500h56l104 -421l112 421h49l112 -421z" />
    <glyph glyph-name="Wdieresis" unicode="&#x1e84;" horiz-adv-x="804" 
d="M314 900h60v-61h-60v61zM431 900h61v-61h-61v61zM691 700h66l-154 -700h-75l-126 546l-127 -546h-74l-154 700h66l129 -587l129 587h62l129 -587z" />
    <glyph glyph-name="wdieresis" unicode="&#x1e85;" horiz-adv-x="667" 
d="M245 700h60v-61h-60v61zM362 700h61v-61h-61v61zM573 500h57l-123 -500h-67l-107 392l-106 -392h-67l-124 500h57l104 -421l112 421h49l112 -421z" />
    <glyph glyph-name="Ygrave" unicode="&#x1ef2;" horiz-adv-x="512" 
d="M190 907h75l58 -131h-48zM396 700h69l-177 -412v-288h-67v288l-174 412h69l139 -338z" />
    <glyph glyph-name="ygrave" unicode="&#x1ef3;" horiz-adv-x="378" 
d="M123 707h75l58 -131h-48zM286 500h56v-508q-1 -36 -10.5 -65t-24.5 -47t-34.5 -30t-40 -17t-42.5 -5q-51 0 -91.5 27t-54.5 86h59q20 -62 86 -62q97 0 97 132v57q-33 -68 -111 -68q-27 0 -50.5 9t-44 28t-32 55t-11.5 84v324h56v-297q0 -152 96 -152t97 152v297z" />
    <glyph glyph-name="endash" unicode="&#x2013;" horiz-adv-x="472" 
d="M50 301h372v-64h-372v64z" />
    <glyph glyph-name="emdash" unicode="&#x2014;" horiz-adv-x="640" 
d="M50 301h540v-64h-540v64z" />
    <glyph glyph-name="quoteleft" unicode="&#x2018;" horiz-adv-x="165" 
d="M88 637h27v-64h-65v64l26 63h23z" />
    <glyph glyph-name="quoteright" unicode="&#x2019;" horiz-adv-x="165" 
d="M50 700h65v-65l-26 -62h-23l11 62h-27v65z" />
    <glyph glyph-name="quotesinglbase" unicode="&#x201a;" horiz-adv-x="165" 
d="M50 65h65v-65l-26 -63h-23l11 63h-27v65z" />
    <glyph glyph-name="quotedblleft" unicode="&#x201c;" horiz-adv-x="298" 
d="M99 700l-11 -63h27v-64h-65v64l26 63h23zM220 637h28v-64h-65v64l26 63h23z" />
    <glyph glyph-name="quotedblright" unicode="&#x201d;" horiz-adv-x="298" 
d="M50 635v65h65v-65l-26 -62h-23l11 62h-27zM183 700h65v-65l-26 -62h-23l11 62h-27v65z" />
    <glyph glyph-name="quotedblbase" unicode="&#x201e;" horiz-adv-x="165" 
d="M50 65h65v-65l-26 -63h-23l11 63h-27v65z" />
    <glyph glyph-name="dagger" unicode="&#x2020;" horiz-adv-x="378" 
d="M155 700h67v-201h106v-64h-106v-495h-67v495h-105v64h105v201z" />
    <glyph glyph-name="daggerdbl" unicode="&#x2021;" horiz-adv-x="378" 
d="M155 700h67v-201h106v-64h-106v-251h106v-64h-106v-180h-67v180h-105v64h105v251h-105v64h105v201z" />
    <glyph glyph-name="bullet" unicode="&#x2022;" horiz-adv-x="346" 
d="M173 436q55 0 93.5 -38.5t38.5 -92.5q0 -55 -38.5 -93.5t-93.5 -38.5t-93.5 38.5t-38.5 93.5q0 54 38.5 92.5t93.5 38.5z" />
    <glyph glyph-name="ellipsis" unicode="&#x2026;" horiz-adv-x="442" 
d="M50 0v65h65v-65h-65zM189 0v65h65v-65h-65zM327 0v65h65v-65h-65z" />
    <glyph glyph-name="perthousand" unicode="&#x2030;" horiz-adv-x="916" 
d="M50 472v131q0 29 11 50.5t28.5 32.5t34.5 16t33 5q13 0 26.5 -3t28 -11t26 -19.5t18.5 -29.5t7 -41v-131q0 -28 -10.5 -49t-27.5 -32.5t-34.5 -17t-33.5 -5.5t-33 5t-34.5 16t-28.5 32.5t-11 50.5zM501 700h52l-388 -700h-51zM218 471v133q0 30 -19 45t-42 15
q-10 0 -20 -3t-20 -9.5t-16 -18.5t-6 -29v-133q0 -31 20 -45.5t42 -14.5q23 1 42 15.5t19 44.5zM654 97v131q0 23 7.5 42t19 30.5t26.5 19t28 10t25 2.5q17 0 34.5 -5.5t34 -16.5t27.5 -32.5t11 -49.5v-131q0 -19 -5 -35t-14 -27t-19.5 -19.5t-22.5 -13t-23.5 -7t-22.5 -2.5
q-15 0 -32 5t-34.5 16t-28.5 32.5t-11 50.5zM404 97v131q0 29 11 50.5t28.5 32.5t34.5 16t32 5q17 0 34.5 -5.5t34 -16.5t27.5 -32.5t11 -49.5v-131q0 -19 -5 -35t-14 -27t-19.5 -19.5t-22.5 -13t-23.5 -7t-22.5 -2.5q-15 0 -32 5t-34.5 16t-28.5 32.5t-11 50.5zM822 96v133
q0 30 -19.5 45t-42.5 15q-13 0 -26 -4.5t-24.5 -19t-11.5 -36.5v-133q0 -31 20 -45t42 -15q23 0 42.5 15t19.5 45zM572 96v133q0 30 -19.5 45.5t-42.5 15.5q-22 0 -42 -14.5t-20 -46.5v-133q0 -21 11.5 -35.5t24.5 -19t26 -5.5q23 0 42.5 15t19.5 45z" />
    <glyph glyph-name="guilsinglleft" unicode="&#x2039;" horiz-adv-x="231" 
d="M50 306l131 110v-68l-93 -76l93 -75v-69l-131 110v68z" />
    <glyph glyph-name="guilsinglright" unicode="&#x203a;" horiz-adv-x="231" 
d="M50 348v68l131 -110v-67l-131 -111v69l93 75z" />
    <glyph glyph-name="fraction" unicode="&#x2044;" horiz-adv-x="446" 
d="M39 0l316 700h53l-317 -700h-52z" />
    <glyph glyph-name="Euro" unicode="&#x20ac;" horiz-adv-x="528" 
d="M87 411v56q0 66 17.5 115t47.5 75.5t64 39t74 12.5q38 0 71 -11.5t62 -36.5t47 -70.5t20 -108.5v-15h-65l-1 13q-3 46 -14.5 79t-30 51.5t-40.5 27t-49 8.5q-28 0 -51.5 -9.5t-43.5 -30t-30.5 -58t-10.5 -90.5v-47h262l-33 -34h-229v-54h175l-34 -34h-141v-46
q0 -42 7 -75t19.5 -54t30.5 -34.5t37.5 -19t41.5 -5.5q125 0 135 167v12h65v-14q-2 -63 -19.5 -109t-47 -71t-62.5 -36.5t-71 -11.5q-40 0 -74 12.5t-64 39t-47.5 75t-17.5 115.5v55h-50v34h50v54h-50v34h50z" />
    <glyph glyph-name="trademark" unicode="&#x2122;" horiz-adv-x="592" 
d="M15 654v46h222v-46h-86v-360h-50v360h-86zM515 700h61v-406h-50v311l-95 -192h-32l-95 192v-311h-50v406h61l100 -206z" />
    <glyph glyph-name="partialdiff" unicode="&#x2202;" horiz-adv-x="600" 
 />
    <glyph glyph-name="emptyset" unicode="&#x2205;" horiz-adv-x="610" 
d="M563 462l-56 -56q56 -68 56 -156q0 -107 -76 -182.5t-182 -75.5q-88 0 -155 56l-57 -57l-45 45l56 56q-58 69 -58 158q0 107 75.5 182.5t183.5 75.5q89 0 157 -56l56 55zM305 47q84 0 142.5 59.5t58.5 143.5t-58.5 143.5t-142.5 59.5q-85 0 -143.5 -59.5t-58.5 -143.5
t58 -143.5t144 -59.5z" />
    <glyph glyph-name="product" unicode="&#x220f;" horiz-adv-x="600" 
 />
    <glyph glyph-name="summation" unicode="&#x2211;" horiz-adv-x="600" 
 />
    <glyph glyph-name="minus" unicode="&#x2212;" horiz-adv-x="535" 
d="M50 352h435v-64h-435v64z" />
    <glyph glyph-name="radical" unicode="&#x221a;" horiz-adv-x="600" 
 />
    <glyph glyph-name="infinity" unicode="&#x221e;" horiz-adv-x="600" 
 />
    <glyph glyph-name="integral" unicode="&#x222b;" horiz-adv-x="356" 
d="M237 736h69v-63h-47q-22 0 -35 -17t-13 -47v-644q0 -50 -26.5 -77t-65.5 -27h-69v63h47q22 0 35 17t13 46v645q0 33 13 57.5t33.5 35.5t45.5 11z" />
    <glyph glyph-name="approxequal" unicode="&#x2248;" horiz-adv-x="563" 
d="M462 397h51q0 -64 -28.5 -105t-81.5 -41q-18 0 -33 3t-31 11t-25 13t-27.5 18.5t-24.5 17.5q-49 34 -86 33q-35 -1 -55 -27t-20 -67h-51q0 68 31 112t88 44q28 0 50.5 -9.5t53.5 -28.5q5 -4 19 -14t19.5 -14t18 -11.5t21.5 -11t21 -6t25 -1.5q31 0 48 23.5t17 60.5z
M462 214l51 1q0 -64 -28.5 -105.5t-81.5 -41.5q-15 0 -29 3t-24.5 7t-24 11.5t-21 12.5t-22 15t-21.5 15q-48 34 -85 32q-36 0 -55.5 -26.5t-19.5 -66.5h-51q0 68 31 112t88 44q28 0 50 -9.5t54 -29.5q4 -3 18.5 -13.5t20 -14.5t18 -11.5t21.5 -10.5t21.5 -5.5t24.5 -2.5
q21 1 36 12.5t22 30t7 41.5z" />
    <glyph glyph-name="notequal" unicode="&#x2260;" horiz-adv-x="518" 
d="M476 371h-162l-39 -97h201v-64h-227l-99 -242h-68l99 242h-139v64h165l39 97h-204v63h230l96 234h68l-96 -234h136v-63z" />
    <glyph glyph-name="lessequal" unicode="&#x2264;" horiz-adv-x="446" 
d="M50 343l346 194v-67l-241 -142l241 -142v-67l-346 194v30zM50 47h346v-64h-346v64z" />
    <glyph glyph-name="greaterequal" unicode="&#x2265;" horiz-adv-x="446" 
d="M50 470v67l346 -194v-30l-346 -194v67l241 142zM50 47h346v-64h-346v64z" />
    <glyph glyph-name="lozenge" unicode="&#x25ca;" horiz-adv-x="600" 
 />
    <glyph glyph-name="K.ss01" horiz-adv-x="453" 
d="M324 700h70l-196 -311q82 -5 112 -13.5t53 -36.5q43 -55 43 -176v-163h-66v163q0 107 -37 147q-29 32 -98 32h-80v-342h-65v700h65v-303z" />
    <glyph glyph-name="R.ss01" horiz-adv-x="479" 
d="M63 0v706h153q46 0 83.5 -10.5t67 -32.5t45.5 -58.5t16 -83.5v-17q0 -113 -99 -157q38 -14 62 -45q41 -56 41 -163v-139h-65v140q0 93 -34 137q-32 43 -101 43h-104v-320h-65zM225 640h-97v-254h97q17 0 32.5 2.5t31.5 8t29 15t23.5 22.5t16.5 32t6 42v9q0 35 -11.5 60
t-32 38t-44 19t-51.5 6z" />
    <glyph glyph-name="f.ss01" horiz-adv-x="248" 
d="M191 709h20v-51h-8q-29 0 -45.5 -4.5t-29.5 -18.5t-18 -41.5t-5 -73.5v-20h106v-52h-106v-448h-56v533q0 55 9 90.5t29 54t44 25t60 6.5z" />
    <glyph glyph-name="k.ss01" horiz-adv-x="374" 
d="M260 500h61l-152 -224q47 -3 72 -9.5t44 -23.5q53 -47 53 -178v-65h-57v65q1 119 -45 155q-27 22 -89 22h-43v-242h-56v700h56v-429z" />
    <glyph glyph-name="t.ss01" horiz-adv-x="248" 
d="M105 449v-259q0 -38 3.5 -63t10 -41t19.5 -24t27.5 -10.5t38.5 -2.5h7v-52h-19q-36 0 -60 6.5t-44 25t-29.5 54t-9.5 91.5v479h56v-153h106v-51h-106z" />
    <glyph glyph-name="afii10049.ss01" horiz-adv-x="479" 
d="M263 706l153 1v-707h-65v320h-103q-67 0 -99 -39q-36 -44 -36 -140v-141h-66v139q0 106 41 160q24 33 63 48q-45 20 -72.5 59.5t-27.5 97.5v17q0 63 29 105.5t75 61t108 18.5zM351 386v254h-97q-28 0 -51 -5.5t-43.5 -19t-32.5 -38.5t-12 -60v-9q0 -34 13 -58.5t34 -38
t44 -19.5t48 -6h97z" />
    <glyph glyph-name="afii10024.ss01" horiz-adv-x="720" 
d="M661 700l-196 -311q76 -4 104 -10.5t50 -27.5q54 -52 54 -188v-163h-66v163q0 117 -45 155q-28 24 -90 24h-79v-342h-65v342h-80q-67 0 -96 -30q-39 -40 -39 -149v-163h-66v163q0 127 46 182q23 24 53 32t109 12l-196 311h70l199 -303v303h65v-303l198 303h70z" />
    <glyph glyph-name="afii10097.ss01" horiz-adv-x="373" 
d="M326 506v-506h-56v226h-43q-25 0 -42 -2t-34 -10t-28 -22q-31 -39 -31 -137v-55h-56v54q0 105 33 154q16 25 42 39q-27 9 -44 24.5t-24 35.5t-7 48v14q0 68 39 102.5t133 34.5h118zM270 455h-55q-49 0 -76.5 -10.5t-37.5 -29t-10 -51.5q0 -45 23 -64.5t86 -21.5h70v177z
" />
    <glyph glyph-name="afii10076.ss01" horiz-adv-x="374" 
d="M260 500h61l-152 -224q51 -3 77.5 -11t45.5 -28q46 -49 46 -172v-65h-57v65q1 111 -39 150q-28 27 -95 27h-43v-242h-56v500h56v-229z" />
    <glyph glyph-name="afii10072.ss01" horiz-adv-x="597" 
d="M544 500l-152 -224q52 -3 78.5 -11t46.5 -29q43 -50 43 -171v-65h-56v65q0 107 -36 147q-28 30 -99 30h-42v-242h-57v242h-43q-66 0 -94 -26q-40 -38 -40 -151v-65h-56v65q0 128 49 176q20 18 45 24.5t74 10.5l-152 224h61l156 -230v230h57v-230l156 230h61z" />
    <glyph glyph-name="two.dnom" horiz-adv-x="234" 
d="M114 340h12q39 0 68.5 -25t29.5 -75v-3q0 -29 -15 -51.5t-37 -38t-44.5 -29.5t-39.5 -33t-20 -42h153v-43h-209v26q0 29 12 52.5t31 37.5t40.5 28.5t40 26t31 29t12.5 38.5t-9.5 35.5t-21 20t-23.5 5.5h-4q-14 0 -27 -6t-23.5 -19t-14.5 -33h-45v4q7 47 37 70.5t66 24.5z
" />
    <glyph glyph-name="four.dnom" horiz-adv-x="250" 
d="M120 338h47l-108 -227h104v145h46v-145h31v-42h-31v-69h-46v69h-153v45z" />
    <glyph glyph-name="one.numr" horiz-adv-x="110" 
d="M16 700h78v-338h-45v296h-33v42z" />
    <glyph glyph-name="three.numr" horiz-adv-x="246" 
d="M119 703h12q36 -1 66 -22.5t30 -64.5v-7q0 -24 -15 -43.5t-36 -24.5q25 -10 39.5 -31t14.5 -49v-8q0 -43 -29.5 -66.5t-69.5 -23.5h-12q-36 0 -67 24t-36 71v2h43q5 -28 23 -41.5t40 -13.5h8q21 0 37.5 13t16.5 37l1 4q0 28 -18 44.5t-44 16.5h-32v42h32q14 0 26.5 4.5
t22 15.5t10.5 28v3q0 16 -9 27t-20 15.5t-23 4.5h-7q-22 0 -39 -12.5t-23 -38.5h-44v3q7 44 36.5 67t65.5 24z" />
    </font>
</defs>
</svg>
